<?xml version="1.0" standalone="no"?>
<!DOCTYPE svg PUBLIC "-//W3C//DTD SVG 1.1//EN" "http://www.w3.org/Graphics/SVG/1.1/DTD/svg11.dtd" >
<svg xmlns="http://www.w3.org/2000/svg">
<metadata></metadata>
<defs>
<font id="swiss_721bold" horiz-adv-x="1118" >
<font-face units-per-em="2048" ascent="1638" descent="-410" />
<missing-glyph horiz-adv-x="559" />
<glyph unicode="&#xfb01;" horiz-adv-x="1179" d="M8 870v217h156v101q0 295 307 295q84 0 158 -6v-232h-76q-59 0 -83 -14t-24 -68v-76h183v-217h-180v-870h-285v870h-156zM59 918h156v-873h182v873h181v124h-181v129q0 63 30 91t103 28h45v142q-29 2 -52 3t-46 1q-141 0 -201.5 -61.5t-60.5 -200.5v-132h-156v-124z M762 0v1087h285v-1087h-285zM762 1208v265h285v-265h-285zM813 45h182v997h-182v-997zM813 1251h182v174h-182v-174z" />
<glyph unicode="&#xfb02;" horiz-adv-x="1179" d="M8 870v217h156v101q0 295 307 295q84 0 158 -6v-232h-76q-59 0 -83 -14t-24 -68v-76h183v-217h-180v-870h-285v870h-156zM59 918h156v-873h182v873h181v124h-181v129q0 63 30 91t103 28h45v142q-29 2 -52 3t-46 1q-141 0 -201.5 -61.5t-60.5 -200.5v-132h-156v-124z M762 0v1473h285v-1473h-285zM813 45h182v1380h-182v-1380z" />
<glyph horiz-adv-x="0" />
<glyph unicode="&#xd;" horiz-adv-x="559" />
<glyph unicode=" "  horiz-adv-x="559" />
<glyph unicode="&#x09;" horiz-adv-x="559" />
<glyph unicode="&#xa0;" horiz-adv-x="559" />
<glyph unicode="!" horiz-adv-x="665" d="M215 1073v400h307v-400l-78 -663h-151zM219 0v295h297v-295h-297zM268 1067l70 -612h61l70 612v356h-201v-356zM272 47h191v201h-191v-201z" />
<glyph unicode="&#x22;" horiz-adv-x="530" d="M102 881v553h70v-553h-70zM358 881v553h70v-553h-70z" />
<glyph unicode="#" horiz-adv-x="1574" d="M143 506l23 74h342l106 290h-372l22 74h375l180 508h96l-180 -508h275l180 508h94l-178 -508h326l-23 -74h-332l-102 -290h356l-22 -74h-359l-178 -504h-96l180 504h-276l-181 -504h-94l178 504h-340zM608 580h273l100 290h-272z" />
<glyph unicode="$" d="M45 440h268q4 -104 45 -167.5t111 -79.5v423q-106 29 -182 66t-124 85t-70.5 112.5t-22.5 148.5q0 184 105.5 299t293.5 125v109h170v-111q190 -25 292.5 -133.5t106.5 -292.5h-272q-12 174 -127 199v-381q215 -53 318.5 -156.5t103.5 -275.5q0 -193 -111.5 -310.5 t-310.5 -138.5v-199h-170v201q-424 35 -424 477zM98 393q10 -186 113.5 -280.5t304.5 -108.5v-197h78v197q201 12 307.5 116.5t106.5 289.5q0 162 -99.5 253t-314.5 144v467q94 -2 150.5 -53.5t66.5 -149.5h172q-16 152 -117.5 240t-271.5 96v106h-78v-104 q-190 -4 -292.5 -103.5t-102.5 -273.5q0 -80 22.5 -138t69.5 -101t123 -76t180 -62v-520q-215 23 -252 258h-166zM260 1055q0 96 66.5 153.5t189.5 65.5v-447q-131 35 -193.5 88.5t-62.5 139.5zM317 1055q0 -59 36 -96t112 -66v326q-68 -8 -108 -52.5t-40 -111.5zM594 135 v496q135 -35 197.5 -95.5t62.5 -158.5q0 -106 -67.5 -169t-192.5 -73zM643 190q74 16 114 63.5t40 121.5q0 133 -154 186v-371z" />
<glyph unicode="%" horiz-adv-x="1796" d="M98 1059q0 78 29 146.5t79 118.5t118.5 79t146.5 29q76 0 143.5 -30t117.5 -80t80 -118.5t30 -144.5t-30 -143.5t-80 -117.5t-117.5 -80t-143.5 -30q-78 0 -146.5 28.5t-118.5 79t-79 118t-29 145.5zM141 1059q0 -68 26 -128.5t70 -105.5t104 -70.5t130 -25.5 q68 0 127 26.5t104.5 70.5t72 104.5t26.5 128.5t-26.5 128t-71 105t-104.5 71t-128 26q-70 0 -130 -26t-104 -71t-70 -104t-26 -129zM264 1059q0 43 16.5 81t44 65.5t65.5 44t81 16.5t81 -16.5t65.5 -45t44 -65.5t16.5 -80t-16.5 -80t-45 -65.5t-65.5 -45t-80 -16.5 t-81 16.5t-65.5 44t-44 65.5t-16.5 81zM307 1061q0 -70 47 -118t117 -48q35 0 64.5 14.5t52 37t36 53t13.5 61.5q0 33 -13.5 62.5t-36 52t-53 36t-63.5 13.5q-66 0 -115 -46t-49 -118zM369 -41l854 1473h209l-854 -1473h-209zM442 0h107l813 1391h-109zM954 332 q0 78 29 145.5t79 117.5t117.5 78.5t145.5 28.5q76 0 143.5 -28.5t117.5 -79.5t80 -118.5t30 -143.5t-30 -143.5t-80 -119t-117.5 -81t-143.5 -29.5q-78 0 -145.5 28.5t-117.5 80t-79 119t-29 145.5zM995 332q0 -68 26 -128.5t70 -105.5t104 -70.5t130 -25.5q68 0 127 26.5 t104.5 70.5t72 104.5t26.5 128.5t-26.5 128t-71 105t-104.5 71t-128 26q-70 0 -130 -26t-104 -71t-70 -104t-26 -129zM1120 330q0 43 15.5 81t43 65.5t65.5 44t81 16.5t81 -16.5t65.5 -45.5t44 -65.5t16.5 -79.5t-16.5 -80t-45 -64.5t-65.5 -44t-80 -16.5t-81 15.5t-65.5 43 t-43 65.5t-15.5 81zM1161 332q0 -70 47 -117t117 -47t118 50t48 114q0 33 -13.5 62.5t-36 53t-53 37t-63.5 13.5t-62.5 -12.5t-52 -35t-36 -53t-13.5 -65.5z" />
<glyph unicode="&#x26;" horiz-adv-x="1456" d="M96 389q0 74 17.5 133.5t55.5 110.5t97.5 97t141.5 95l-58 76q-41 55 -62.5 106.5t-21.5 116.5q0 76 24.5 139.5t74 109.5t120 73t162.5 27q174 0 269.5 -89.5t95.5 -232.5q0 -115 -57.5 -202t-180.5 -165l207 -254q35 49 51.5 107.5t24.5 132.5h260q-10 -121 -48 -229.5 t-124 -214.5l268 -326h-340l-104 129q-78 -82 -185.5 -126t-224.5 -44q-102 0 -187 33t-146.5 90t-95.5 136t-34 171zM150 389q0 -84 30.5 -153.5t84.5 -119.5t129 -79t163 -29q115 0 218.5 46t207.5 139l115 -146h155q23 0 42.5 -3t41.5 -7q-29 23 -47 41t-28 33l-177 215 q78 88 121 184t58 213h-168q-8 -80 -36 -145.5t-81 -124.5l-279 342q133 80 197 160.5t64 191.5q0 123 -83 199.5t-233 76.5q-160 0 -244 -85t-84 -214q0 -57 19.5 -101t54.5 -91l86 -115q-84 -51 -145.5 -96t-101.5 -93t-60 -105.5t-20 -133.5zM334 410q0 78 30.5 127 t90.5 94l108 78l322 -400q-78 -72 -142.5 -110.5t-152.5 -38.5q-115 0 -185.5 69.5t-70.5 180.5zM385 416q0 -88 55.5 -147.5t147.5 -59.5q72 0 123 25.5t104 82.5l-262 326l-76 -55q-92 -66 -92 -172zM477 1151q0 74 43 114t125 40q78 0 123 -40t45 -112t-29.5 -121 t-101.5 -98l-61 -41l-60 74q-39 47 -61.5 89t-22.5 95zM526 1151q0 -35 13.5 -66.5t44.5 -68.5l49 -62l37 25q96 66 96 172q0 51 -33 81t-88 30q-119 0 -119 -111z" />
<glyph unicode="'" horiz-adv-x="274" d="M102 881v553h70v-553h-70z" />
<glyph unicode="(" horiz-adv-x="663" d="M127 522q0 223 88 466t266 485h211q-141 -229 -206.5 -461t-65.5 -490t65.5 -489.5t206.5 -460.5h-211q-178 242 -266 484.5t-88 465.5zM178 522q0 -213 82 -443.5t248 -459.5h106q-127 215 -187 435t-60 468q0 246 59 466t186 437h-108q-326 -477 -326 -903z" />
<glyph unicode=")" horiz-adv-x="663" d="M-14 -428q141 229 207.5 460.5t66.5 489.5t-66.5 489.5t-207.5 461.5h213q178 -242 266 -485t88 -466t-88 -465.5t-266 -484.5h-213zM66 -381h106q166 229 247 459.5t81 443.5q0 430 -324 903h-110q127 -217 186 -437t59 -466q0 -248 -59 -468t-186 -435z" />
<glyph unicode="*" horiz-adv-x="1024" d="M70 1077l63 191l277 -90l2 292h198v-292l279 90l63 -191l-278 -90l170 -237l-160 -117l-172 235l-172 -235l-162 117l170 237zM127 1110l301 -98l-186 -254l84 -64l184 256l186 -256l84 64l-186 256l301 96l-33 100l-299 -100v317h-104v-317l-299 100z" />
<glyph unicode="+" horiz-adv-x="1705" d="M254 580v61h569v580h62v-580h567v-61h-567v-580h-62v580h-569z" />
<glyph unicode="," horiz-adv-x="550" d="M123 0v301h303v-289q0 -303 -301 -358v166q117 33 117 166v14h-119zM170 43h117q0 -10 1 -18.5t1 -16.5q0 -166 -119 -211v-86q111 35 159 109t48 192v246h-207v-215z" />
<glyph unicode="-" horiz-adv-x="661" d="M51 408v274h559v-274h-559zM102 453h457v182h-457v-182z" />
<glyph unicode="." horiz-adv-x="559" d="M127 0v301h303v-301h-303zM176 43h207v215h-207v-215z" />
<glyph unicode="/" horiz-adv-x="557" d="M-96 -190l493 1663h197l-494 -1663h-196zM-33 -143h99l466 1568h-98z" />
<glyph unicode="0" d="M66 707q0 377 119.5 561t373.5 184q256 0 375 -184.5t119 -562.5q0 -379 -119 -562.5t-375 -183.5t-374.5 184.5t-118.5 563.5zM117 707q0 -356 106.5 -528.5t335.5 -172.5t334.5 171t105.5 528q0 356 -106.5 529t-335.5 173t-334.5 -172t-105.5 -528zM307 705 q0 281 56.5 415.5t193.5 134.5t193.5 -135t56.5 -415q0 -281 -56.5 -415t-193.5 -134t-193.5 134t-56.5 415zM360 707q0 -258 44.5 -381t154.5 -123q111 0 154 124t43 380t-43 379.5t-154 123.5t-155 -122.5t-44 -380.5z" />
<glyph unicode="1" d="M125 993v203h12q94 0 163 12.5t115 42t70.5 78.5t34.5 123h230v-1452h-283v993h-342zM176 1040h344v-995h176v1362h-129q-16 -72 -47 -121t-78 -78.5t-112.5 -43t-153.5 -15.5v-109z" />
<glyph unicode="2" d="M61 0q4 104 31 185t76 149.5t117.5 130t156.5 127.5q70 51 126.5 92t95 83t60 88t21.5 112q0 236 -204 235q-100 0 -145.5 -65.5t-45.5 -206.5v-10h-280v18q0 256 118.5 385t354.5 129q113 0 205 -34t156.5 -95t99 -147t34.5 -191q0 -80 -19.5 -147.5t-57 -127 t-94 -113.5t-130.5 -110q-55 -41 -104 -73.5t-89 -61t-70 -54.5t-46 -54h612v-244h-979zM117 47h870v150h-622q0 43 22.5 76.5t61 66.5t93 69.5t122.5 84.5q80 55 139 109t100 112.5t61.5 124t20.5 145.5q0 94 -30.5 171t-88 132t-139.5 86t-182 31q-205 0 -311.5 -110.5 t-108.5 -327.5h176q12 281 240 280q123 0 189.5 -71.5t66.5 -206.5q0 -70 -20.5 -120t-58.5 -94t-93.5 -86t-124.5 -94q-78 -57 -143.5 -110t-116 -113.5t-83 -134.5t-40.5 -170z" />
<glyph unicode="3" d="M57 434v10h275q0 -121 54 -183t159 -62q96 0 148 53t52 156q0 123 -61 177t-197 54h-27.5t-29.5 -2v203h31q129 0 187.5 44t58.5 152q0 186 -185 187q-86 0 -133 -52.5t-47 -150.5v-29h-272q4 225 119.5 343t334.5 118q109 0 197 -28.5t149.5 -81t94 -124t32.5 -159.5 q0 -205 -174 -287q104 -35 164 -126t60 -226q0 -102 -35 -186t-101.5 -145.5t-161 -95.5t-210.5 -34q-231 0 -356.5 123t-125.5 352zM113 397q10 -190 119.5 -290.5t308.5 -100.5q104 0 187 30t142.5 83t91 129t31.5 168q0 127 -57 212t-178 144q98 53 143 119.5t45 163.5 q0 158 -112.5 254t-309.5 96q-186 0 -290.5 -95.5t-110.5 -273.5h168q4 111 64.5 171.5t164.5 60.5q115 0 177.5 -59.5t62.5 -170.5q0 -123 -65.5 -181t-211.5 -64v-109h25q143 0 217 -66.5t74 -195.5q0 -135 -66.5 -203.5t-191.5 -68.5q-111 0 -176.5 63t-81.5 184h-170z " />
<glyph unicode="4" d="M51 313v256l498 844h356v-868h158v-232h-158v-313h-278v313h-576zM102 360h576v-315h174v315h158v138h-158v868h-270l-480 -807v-199zM236 498l442 749v-749h-442zM319 545h308v317q0 59 3 126t19 145q-33 -78 -76 -154z" />
<glyph unicode="5" d="M55 385h279q4 -92 59.5 -144.5t136.5 -52.5q106 0 163 67t57 196q0 123 -57.5 189.5t-162.5 66.5q-66 0 -108.5 -22.5t-71.5 -76.5l-256 15l99 790h790v-242h-584l-39 -253q-4 -27 -24 -66q53 47 116.5 65.5t149.5 18.5q92 0 173 -33t140.5 -94t93 -148.5t33.5 -195.5 q0 -119 -36.5 -213t-104 -158.5t-162 -99.5t-211.5 -35q-104 0 -189 29.5t-147.5 85t-98.5 134.5t-38 177zM113 338q8 -74 42.5 -135.5t89 -105.5t128 -67.5t159.5 -23.5q104 0 188.5 31t144 89t92 143t32.5 194q0 98 -29.5 178t-83 135t-125 85t-153.5 30q-180 0 -307 -109 l65 435h576v149h-696l-89 -696l179 -11q74 94 202 95q129 0 201 -80t72 -223q0 -150 -74 -230t-201 -80q-92 0 -157.5 52.5t-81.5 144.5h-174z" />
<glyph unicode="6" d="M51 684q0 391 129 580.5t402 189.5q92 0 169.5 -26.5t135 -74.5t93.5 -117t44 -155h-285q-18 141 -159 142q-102 0 -163 -79t-69 -208l-2 -31q-2 -14 -3 -29.5t-7 -31.5q37 41 104.5 70.5t167.5 29.5q98 0 181 -33.5t142.5 -95t92.5 -148.5t33 -196q0 -117 -35 -212 t-98.5 -161.5t-152.5 -102.5t-200 -36q-520 0 -520 725zM104 684q0 -678 467 -678q96 0 176 32t137.5 93.5t89.5 150.5t32 203q0 92 -30 168t-82 130.5t-126 84t-162 29.5q-96 0 -170 -30.5t-137 -98.5q-2 18 -2 34.5v33.5q0 432 287 432q78 0 131 -38t67 -102h185 q-29 129 -128.5 204t-252.5 75q-250 0 -366 -176t-116 -547zM293 467q0 135 70.5 212t197.5 77q123 0 189.5 -75t66.5 -216q0 -154 -65.5 -232.5t-190.5 -78.5q-129 0 -198.5 79.5t-69.5 233.5zM346 465q0 -129 53.5 -197.5t155.5 -68.5q209 0 209 264q0 119 -54.5 183.5 t-152.5 64.5q-104 0 -157.5 -62.5t-53.5 -183.5z" />
<glyph unicode="7" d="M47 1165v248h1016v-219q-238 -264 -365 -554t-151 -640h-297q10 174 56 344t117 323.5t164 285.5t197 231q-53 -18 -100 -19h-637zM98 1210h752q-246 -285 -382 -569.5t-163 -593.5h193q31 334 156.5 616.5t355.5 546.5v156h-912v-156z" />
<glyph unicode="8" d="M61 412q0 262 207 350q-92 49 -130 117.5t-38 175.5q0 186 121 291.5t338 105.5t338 -105.5t121 -291.5q0 -209 -170 -293q209 -90 209 -350q0 -211 -132 -332t-366 -121q-240 0 -369 120t-129 333zM115 414q0 -190 116.5 -299t327.5 -109q209 0 325.5 108.5t116.5 299.5 q0 123 -52 205.5t-163 142.5q94 51 137.5 120.5t43.5 172.5q0 164 -106.5 257t-301.5 93q-193 0 -300 -94t-107 -256q0 -102 42 -171t136 -122q-111 -59 -163 -142t-52 -206zM301 410q0 127 69.5 203.5t188.5 76.5q117 0 187.5 -73.5t70.5 -196.5q0 -129 -68.5 -197.5 t-189.5 -68.5q-123 0 -190.5 67.5t-67.5 188.5zM319 1042q0 102 65 163t175 61q111 0 175.5 -62.5t64.5 -161.5q0 -104 -63.5 -162.5t-176.5 -58.5q-117 0 -178.5 57.5t-61.5 163.5zM354 412q0 -100 54.5 -155.5t150.5 -55.5t150.5 56t54.5 165q0 102 -56.5 161.5 t-148.5 59.5q-94 0 -149.5 -62.5t-55.5 -168.5zM373 1044q0 -84 47 -129t139 -45t139 45.5t47 128.5q0 78 -50 127.5t-136 49.5t-136 -49.5t-50 -127.5z" />
<glyph unicode="9" d="M61 940q0 117 35 212t98.5 161.5t152.5 102.5t200 36q520 0 520 -723q0 -391 -130 -580.5t-402 -189.5q-186 0 -305 99.5t-136 271.5h285q18 -139 158 -140q104 0 164.5 77t66.5 198v35q2 35 16 71q-37 -49 -107.5 -76.5t-166.5 -27.5q-98 0 -181 34t-142.5 95t-92.5 148 t-33 196zM113 928q0 -92 29.5 -168t83 -130.5t126 -85t160.5 -30.5q98 0 170 32t137 103q0 -16 1 -31.5t1 -31.5q0 -442 -286 -443q-78 0 -131.5 38t-67.5 102h-184q29 -129 128 -203t252 -74q248 0 365 175t117 546q0 678 -467 678q-96 0 -176 -32t-137.5 -92t-89 -149.5 t-31.5 -203.5zM301 946q0 154 66.5 232.5t189.5 78.5q129 0 198.5 -79.5t69.5 -233.5q0 -137 -70.5 -213t-197.5 -76q-123 0 -189.5 75t-66.5 216zM354 948q0 -119 53.5 -182.5t151.5 -63.5q104 0 158.5 62.5t54.5 181.5q0 129 -53 197.5t-156 68.5q-209 0 -209 -264z" />
<glyph unicode=":" horiz-adv-x="667" d="M223 0v301h303v-301h-303zM223 766v303h303v-303h-303zM270 43h207v215h-207v-215zM270 809h207v215h-207v-215z" />
<glyph unicode=";" horiz-adv-x="667" d="M223 0v301h301v-289q0 -303 -301 -358v166q119 33 119 166v14h-119zM223 766v303h301v-303h-301zM270 43h115q0 -10 1 -18.5t1 -18.5q0 -168 -117 -209v-86q111 35 159 109t48 192v246h-207v-215zM270 809h207v215h-207v-215z" />
<glyph unicode="&#x3c;" horiz-adv-x="1705" d="M264 590v41l1178 481v-70l-1069 -432l1069 -432v-69z" />
<glyph unicode="=" horiz-adv-x="1705" d="M254 403v62h1198v-62h-1198zM254 758v61h1198v-61h-1198z" />
<glyph unicode="&#x3e;" horiz-adv-x="1705" d="M264 109v69l1067 432l-1067 432v70l1178 -481v-41z" />
<glyph unicode="?" horiz-adv-x="1220" d="M113 1028v29q0 102 34.5 186t98 143.5t155 92t205.5 32.5q119 0 212 -31.5t157.5 -88t98.5 -135t34 -173.5q0 -78 -18.5 -137t-67.5 -117q-43 -51 -98.5 -89t-108.5 -83q-43 -35 -56.5 -71.5t-13.5 -91.5q0 -10 1.5 -21.5t1.5 -23.5h-269v57q0 80 16.5 141.5t75.5 122.5 q39 41 81 71.5t75 61.5t54.5 69t21.5 91q0 98 -50.5 149.5t-140.5 51.5q-205 0 -217 -236h-282zM162 1073h190q14 111 80 173.5t170 62.5q123 0 187.5 -64.5t64.5 -181.5q0 -59 -20.5 -100t-52 -74t-72.5 -62.5t-82 -68.5q-53 -49 -76 -101.5t-23 -124.5v-38h166v10 q0 55 18.5 98t59.5 78q51 45 102.5 83t92.5 80t65.5 95t24.5 131q0 88 -31 162t-88 125t-141 79.5t-191 28.5q-205 0 -320.5 -105.5t-123.5 -285.5zM465 0v293h295v-293h-295zM516 47h191v199h-191v-199z" />
<glyph unicode="@" horiz-adv-x="2048" d="M127 524q0 326 197 566q141 174 341.5 264t448.5 90q166 0 308.5 -45t240.5 -121q258 -199 258 -502q0 -170 -62.5 -306t-177.5 -228q-141 -111 -303 -111q-188 0 -188 141q0 10 1 21.5t3 23.5q-47 -90 -125 -139t-164 -49q-156 0 -235.5 82t-79.5 242q0 115 37 214 t99 171.5t146 114.5t179 42q197 0 258 -176l61 135h66l-138 -546q-10 -43 -17 -74t-7 -47q0 -94 125 -94q70 0 140.5 32.5t127.5 91.5q78 84 125 205t47 256q0 133 -52 245t-148.5 191.5t-231.5 124.5t-301 45q-336 0 -567 -188q-160 -129 -241 -303t-81 -385 q0 -164 57.5 -297t164 -227.5t257 -146.5t336.5 -52q166 0 329 50t302 142l23 -34q-289 -215 -644 -215q-381 0 -616 180q-299 229 -299 616zM682 446q0 -123 59.5 -188t163.5 -65q117 0 203 73.5t119 198.5l65 258q-23 102 -84 155.5t-159 53.5q-78 0 -145.5 -37 t-117 -102.5t-77 -154.5t-27.5 -192z" />
<glyph unicode="A" horiz-adv-x="1456" d="M25 0l526 1473h354l527 -1473h-336l-99 303h-540l-99 -303h-333zM94 47h232l96 303h608l103 -303h229l-492 1378h-284zM477 520l240 746l256 -746h-496zM541 567h364l-157 475q-10 29 -18.5 58.5t-12.5 62.5q-8 -68 -25 -121z" />
<glyph unicode="B" horiz-adv-x="1456" d="M150 0v1473h684q236 0 353.5 -98.5t117.5 -282.5q0 -209 -175 -295q225 -88 226 -353q0 -209 -136.5 -326.5t-400.5 -117.5h-669zM201 47h567q61 0 116.5 2t103.5 11.5t91 26.5t82 46q66 51 104 131t38 178q0 139 -64.5 221t-206.5 130q106 33 162.5 108.5t56.5 185.5 q0 182 -112.5 260t-335.5 78h-602v-1378zM387 219v477h422q145 0 215 -55t70 -184t-70 -183.5t-217 -54.5h-420zM387 858v404h422q246 0 246 -199q0 -205 -252 -205h-416zM438 266h359q63 0 109 8.5t77 30t45 58t14 94.5q0 113 -60 153.5t-183 40.5h-361v-385zM438 903h350 q111 0 162 36t51 124q0 86 -51 120t-155 34h-357v-314z" />
<glyph unicode="C" horiz-adv-x="1456" d="M84 735q0 184 45 327.5t132 244t214 152.5t289 52q127 0 235.5 -37.5t189.5 -107.5t131 -167t62 -214h-305q-43 254 -325 254q-80 0 -145.5 -34t-113 -98.5t-73 -158.5t-25.5 -213t27 -212t75 -157.5t115.5 -98.5t151.5 -34q129 0 215 73t102 200h303 q-10 -123 -59 -223.5t-132 -172t-194.5 -111.5t-246.5 -40q-154 0 -278 52t-210 152.5t-133 245t-47 326.5zM135 735q0 -174 43 -310t123 -229.5t193.5 -141.5t255.5 -48q117 0 215 33t172.5 92t123 142t64.5 186h-201q-31 -129 -127 -201t-231 -72q-94 0 -172 37 t-134.5 107.5t-87 173t-30.5 231.5q0 262 113.5 405.5t312.5 143.5q141 0 231.5 -65.5t120.5 -186.5h203q-18 98 -66.5 177t-120 136.5t-167 88t-205.5 30.5q-299 0 -464 -189.5t-165 -539.5z" />
<glyph unicode="D" horiz-adv-x="1456" d="M143 0v1473h641q143 0 253 -50.5t184.5 -144.5t113.5 -231.5t39 -311.5q0 -166 -45 -302t-124 -232.5t-186.5 -148.5t-232.5 -52h-643zM195 47h581q119 0 219.5 48t173 138.5t112.5 218.5t40 285q0 334 -139.5 511t-409.5 177h-577v-1378zM391 219v1043h342 q188 0 284.5 -134.5t96.5 -392.5q0 -252 -100.5 -384t-294.5 -132h-328zM442 266h277q174 0 258 115t84 354q0 238 -82 358.5t-244 120.5h-293v-948z" />
<glyph unicode="E" horiz-adv-x="1357" d="M156 0v1473h1069v-256h-770v-314h704v-252h-704v-379h809v-272h-1108zM207 47h1003v178h-807v471h705v160h-705v408h768v161h-964v-1378z" />
<glyph unicode="F" horiz-adv-x="1232" d="M143 0v1473h1031v-256h-732v-334h641v-256h-641v-627h-299zM195 47h196v627h639v162h-639v428h729v161h-925v-1378z" />
<glyph unicode="G" horiz-adv-x="1591" d="M88 737q0 178 49 321.5t142.5 244t226.5 154.5t301 54q268 0 436 -132t205 -365h-309q-33 117 -116 176t-210 59q-197 0 -303.5 -132t-106.5 -378q0 -248 113 -381t305 -133q143 0 240.5 86t114.5 234h-334v252h610v-797h-203l-20 86q-4 12 -4 26.5v32.5v37 q-59 -109 -171 -166t-270 -57q-156 0 -283.5 55.5t-220 157.5t-142.5 245.5t-50 319.5zM141 737q0 -166 47.5 -300t131 -230t201.5 -148.5t259 -52.5q287 0 463 252l45 -211h113v703h-508v-160h338q-2 -92 -34 -167t-86 -129t-128 -84t-160 -30q-109 0 -195.5 37t-148 108.5 t-94.5 176t-33 237.5q0 268 121 411.5t340 143.5q137 0 230.5 -60t134.5 -175h204q-51 199 -200.5 302t-395.5 103q-145 0 -265 -51t-204 -145t-130 -229.5t-46 -301.5z" />
<glyph unicode="H" horiz-adv-x="1456" d="M145 0v1473h306v-549h555v549h305v-1473h-305v653h-555v-653h-306zM197 47h202v653h658v-653h203v1378h-203v-548h-658v548h-202v-1378z" />
<glyph unicode="I" horiz-adv-x="561" d="M129 0v1473h303v-1473h-303zM180 47h201v1378h-201v-1378z" />
<glyph unicode="J" d="M41 414v135h293v-131q0 -106 41 -155.5t135 -49.5q102 0 137 59.5t35 184.5v1016h303v-998q0 -133 -23.5 -229t-79 -161t-149.5 -95.5t-235 -30.5q-457 0 -457 455zM92 418q0 -209 97.5 -310.5t308.5 -101.5q123 0 206.5 25.5t134 79t73 137.5t22.5 198v979h-201v-962 q0 -154 -51 -225.5t-182 -71.5q-217 0 -217 252v84h-191v-84z" />
<glyph unicode="K" horiz-adv-x="1468" d="M158 0v1473h303v-515q0 -18 -3 -46.5t-12 -67.5q39 59 78 100l500 529h391l-588 -596l641 -877h-393l-418 582q-16 25 -41 71q-20 -25 -32.5 -39t-16.5 -18l-106 -111v-485h-303zM209 47h201v457l211 211l483 -668h231q18 0 60 -10q-23 20 -35 33.5t-17 19.5l-581 791 l495 499q10 10 25.5 24.5t42.5 31.5q-29 -4 -48.5 -7.5t-29.5 -3.5h-198l-639 -671v671h-201v-1378z" />
<glyph unicode="L" horiz-adv-x="1241" d="M150 0v1473h303v-1201h718v-272h-1021zM201 47h917v178h-717v1200h-200v-1378z" />
<glyph unicode="M" horiz-adv-x="1695" d="M141 0v1473h426l250 -846q10 -35 19.5 -73t11.5 -83q4 41 11 79t18 77l245 846h432v-1473h-284v528q0 174 6 318.5t16 261.5q-20 -98 -42.5 -192.5t-51.5 -186.5l-219 -729h-262l-217 717q-27 88 -50.5 185t-46.5 206q10 -154 15.5 -272.5t5.5 -206.5v-629h-283zM193 45 h180v1264l383 -1264h184l381 1264v-1264h182v1380h-342l-313 -1069l-322 1069h-333v-1380z" />
<glyph unicode="N" horiz-adv-x="1458" d="M139 0v1473h318l477 -838q6 -12 34.5 -71.5t78.5 -166.5q-25 162 -25 250v826h297v-1473h-311l-473 831q-16 31 -48 91.5t-73 154.5q24 -175 24 -248v-6v-823h-299zM190 47h197v1131l649 -1131h232v1378h-195v-1128l-649 1128h-234v-1378z" />
<glyph unicode="O" horiz-adv-x="1587" d="M88 735q0 184 48 328.5t139.5 244t222.5 151.5t295 52t295 -52t222 -151.5t139 -243.5t48 -329q0 -184 -48 -328.5t-139 -244t-222.5 -151.5t-294.5 -52q-164 0 -295 52t-222.5 151.5t-139.5 244t-48 328.5zM141 735q0 -174 44 -310t128 -229.5t206 -141.5t276 -48 q152 0 271.5 48t203.5 141.5t129 229.5t45 310q0 352 -171 541.5t-480 189.5q-152 0 -273 -49t-205 -142t-129 -229.5t-45 -310.5zM342 735q0 274 118 415.5t333 141.5t331.5 -142t116.5 -415q0 -272 -116.5 -414.5t-331.5 -142.5t-333 141.5t-118 415.5zM395 735 q0 -250 104.5 -381t293.5 -131q193 0 294 130t101 382q0 250 -103.5 381t-291.5 131q-190 0 -294 -130t-104 -382z" />
<glyph unicode="P" horiz-adv-x="1343" d="M145 0v1473h629q242 0 361.5 -121t119.5 -353q0 -227 -119.5 -351t-349.5 -124h-337v-524h-304zM197 47h200v524h389q205 0 311.5 110t106.5 318q0 426 -434 426h-573v-1378zM397 741v521h338q137 0 205 -61.5t68 -196.5q0 -262 -273 -263h-338zM451 788h278 q117 0 172 49.5t55 166.5q0 121 -57 167t-170 46h-278v-429z" />
<glyph unicode="Q" horiz-adv-x="1587" d="M88 735q0 184 48 328.5t139.5 244t222.5 151.5t295 52q166 0 296 -52t221 -151.5t139 -244.5t48 -332q0 -160 -33.5 -284.5t-111.5 -229.5l155 -149l-164 -172l-165 161q-96 -59 -188.5 -78.5t-196.5 -19.5q-164 0 -295 52t-222.5 151.5t-139.5 244t-48 328.5zM141 735 q0 -174 44 -310t128 -229.5t206 -141.5t276 -48q111 0 203 23.5t184 89.5l159 -156l99 105l-156 147q86 100 123 225t37 289q0 356 -171 545.5t-480 189.5q-154 0 -275 -48t-205 -141t-128 -229.5t-44 -310.5zM342 735q0 274 118 415.5t333 141.5q217 0 332.5 -142 t115.5 -423q0 -115 -22.5 -206t-75.5 -169l-168 162l-96 -100l163 -160q-63 -41 -121.5 -58.5t-127.5 -17.5q-215 0 -333 141.5t-118 415.5zM395 735q0 -252 104.5 -382t299.5 -130q43 0 85 8.5t89 24.5l-162 158l162 168l166 -160q29 72 39 148.5t10 164.5 q0 250 -104.5 381t-292.5 131t-292 -131t-104 -381z" />
<glyph unicode="R" horiz-adv-x="1454" d="M145 0v1473h641q137 0 243 -18.5t188 -94.5q117 -111 116 -309q0 -266 -237 -344q111 -27 153.5 -104t46.5 -218l7 -174q2 -63 8 -103t49 -63v-45h-332q-20 41 -26.5 86t-8.5 98l-4 156q-2 63 -12 108.5t-34.5 73t-65.5 39.5t-107 12h-321v-573h-304zM197 47h200v571h359 q137 0 206.5 -50t73.5 -183l6 -156q2 -53 4.5 -97t20.5 -85h227q-31 29 -37 68t-8 96l-6 174q-2 72 -15.5 124t-41 89t-71.5 62.5t-111 48.5q147 49 211.5 127.5t64.5 207.5q0 205 -111.5 293t-345.5 88h-626v-1378zM397 782v482h416q129 0 197.5 -62.5t68.5 -177.5 q0 -117 -66.5 -179.5t-199.5 -62.5h-416zM449 829h360q219 0 219 195t-219 195h-360v-390z" />
<glyph unicode="S" horiz-adv-x="1351" d="M76 455h301q16 -117 96 -177.5t217 -60.5q287 0 287 191q0 49 -22.5 79.5t-69.5 54t-121 42t-178 41.5q-121 27 -211 58.5t-151.5 80.5t-92.5 121.5t-31 183.5q0 211 141.5 326.5t409.5 115.5q274 0 422 -122.5t154 -348.5h-293q-4 106 -80 165t-209 59q-254 0 -254 -177 q0 -53 22.5 -83.5t68.5 -50t117 -34t165 -36.5q129 -31 225 -65t159.5 -83t95.5 -121.5t32 -179.5q0 -221 -152.5 -348t-441.5 -127q-283 0 -439.5 130t-166.5 366zM131 410q29 -195 168 -299.5t385 -104.5q264 0 401.5 113.5t137.5 312.5q0 100 -31 166t-91.5 110 t-151.5 73.5t-210 58.5q-94 23 -168.5 40t-126 41.5t-78 62.5t-26.5 103q0 104 77 163t224 59q145 0 231 -57.5t109 -166.5h190q-23 180 -154.5 279.5t-365.5 99.5q-244 0 -370.5 -101t-126.5 -294q0 -102 26.5 -166.5t79.5 -106.5t133 -68t185 -50q115 -27 199.5 -49.5 t140 -50t83 -67.5t27.5 -101q0 -111 -87 -175.5t-253 -64.5q-145 0 -236.5 61.5t-121.5 178.5h-199z" />
<glyph unicode="T" horiz-adv-x="1243" d="M35 1210v263h1173v-263h-436v-1210h-303v1210h-434zM86 1255h434v-1210h201v1210h434v170h-1069v-170z" />
<glyph unicode="U" horiz-adv-x="1468" d="M143 508v965h306v-971q0 -131 74.5 -204t209.5 -73t211 74t76 203v971h303v-877q0 -115 -9 -209t-61 -180q-72 -123 -200.5 -185.5t-315.5 -62.5q-285 0 -439.5 142.5t-154.5 406.5zM195 516q0 -250 139 -380t401 -130q152 0 262.5 45t186.5 144q59 78 73.5 174t14.5 225 v829h-201v-921q0 -150 -91 -237t-247 -87q-160 0 -248 86t-88 238v921h-202v-907z" />
<glyph unicode="V" horiz-adv-x="1343" d="M23 1473h325l291 -867q14 -41 24.5 -80t14.5 -75q16 94 37 155l284 867h324l-502 -1473h-291zM88 1425l477 -1378h221l469 1378h-219l-358 -1075l-365 1075h-225z" />
<glyph unicode="W" horiz-adv-x="1927" d="M23 1473h319l203 -748q4 -18 14 -67.5t27 -133.5q8 63 16 112.5t19 88.5l180 748h323l179 -740q18 -78 36 -209q12 72 22.5 124t20.5 89l199 736h320l-422 -1473h-277l-205 864q-10 45 -19 103.5t-15 130.5q-12 -123 -37 -234l-203 -864h-279zM88 1425l393 -1378h203 l279 1149l278 -1149h201l395 1378h-217l-285 -1013l-250 1013h-247l-250 -1013l-285 1013h-215z" />
<glyph unicode="X" horiz-adv-x="1349" d="M25 0l460 752l-460 721h356l264 -431q4 -8 12.5 -28.5t18.5 -55.5q16 57 33 84l260 431h356l-461 -719l461 -754h-356l-264 446q-6 10 -14.5 32t-16.5 52q-16 -51 -33 -81l-262 -449h-354zM109 47h241l324 549l323 -549h242l-432 707l434 671h-246l-321 -524l-324 524 h-237l430 -673z" />
<glyph unicode="Y" horiz-adv-x="1351" d="M27 1473h366l266 -517q12 -23 24.5 -52.5t16.5 -69.5q4 35 14.5 65.5t24.5 58.5l244 515h342l-473 -924v-549h-305v549zM109 1425l489 -868v-510h203v506l446 872h-231l-316 -657l-338 657h-253z" />
<glyph unicode="Z" horiz-adv-x="1243" d="M61 0v256l695 885q16 23 34.5 41t40.5 35q-43 -6 -73.5 -8.5t-48.5 -2.5h-629v267h1100v-256l-699 -893q-4 -6 -63 -66q47 8 106 8h654v-266h-1117zM115 47h1011v172h-790l790 1008v198h-995v-172h774l-790 -1009v-197z" />
<glyph unicode="[" horiz-adv-x="667" d="M121 -436v1909h500v-213h-230v-1483h230v-213h-500zM172 -389h397v119h-229v1577h229v118h-397v-1814z" />
<glyph unicode="\" horiz-adv-x="557" d="M-55 1473h196l494 -1663h-197zM8 1425l465 -1568h100l-467 1568h-98z" />
<glyph unicode="]" horiz-adv-x="667" d="M51 -223h230v1483h-230v213h500v-1909h-500v213zM102 -270v-119h398v1814h-398v-118h230v-1577h-230z" />
<glyph unicode="^" horiz-adv-x="2048" d="M426 903l547 553h98l549 -553h-109l-487 483l-489 -483h-109z" />
<glyph unicode="_" horiz-adv-x="1024" d="M0 -422h1024v-61h-1024v61z" />
<glyph unicode="`" horiz-adv-x="1024" d="M115 1526h350l229 -328h-194zM233 1483l285 -242h90l-170 242h-205z" />
<glyph unicode="a" horiz-adv-x="1120" d="M70 307q0 287 325 342q90 14 153.5 21.5t104.5 15.5t59.5 25.5t18.5 54.5q0 33 -6 57.5t-23.5 42t-50.5 25.5t-88 8q-94 0 -138 -30.5t-44 -104.5v-16h-272v20q0 170 117.5 264t338.5 94q215 0 332 -80.5t117 -226.5v-618q0 -59 12 -95t49 -57v-49h-303q-25 51 -24 92v17 q-129 -147 -357 -148q-147 0 -234 88t-87 258zM123 307q0 -147 76.5 -223t218.5 -76q92 0 187 48.5t173 140.5q0 -47 4 -84t19 -66h211q-29 20 -40 57t-11 97v608q0 129 -102.5 199.5t-291.5 70.5q-190 0 -296.5 -77.5t-106.5 -204.5v-6h168q20 155 230 155h3q117 0 168 -40 t51 -126q0 -47 -15 -74.5t-50 -45t-91.5 -26.5t-138.5 -22q-90 -12 -157.5 -31.5t-114.5 -54t-70.5 -87t-23.5 -132.5zM307 324q0 123 158 161q25 6 58.5 10.5t74.5 11.5t88 20.5t98 35.5v-110q0 -137 -81.5 -205t-213.5 -68q-88 0 -135 39t-47 105zM356 328q0 -47 37 -75 t103 -28q49 0 92 13.5t75.5 39t52 61.5t19.5 81v80q-80 -27 -149.5 -38t-120.5 -24.5t-80 -37t-29 -72.5z" />
<glyph unicode="b" horiz-adv-x="1243" d="M121 0v1473h282v-406q0 -14 -14 -78q53 63 127 100t184 37q109 0 196 -38.5t148.5 -112.5t95.5 -181.5t34 -242.5q0 -139 -34 -248.5t-95.5 -184.5t-149.5 -115t-197 -40q-195 0 -311 135q8 -31 8 -53v-45h-274zM172 45h174v154q80 -98 160 -144.5t186 -46.5q98 0 178 37 t135.5 106.5t86 170t30.5 229.5q0 125 -29.5 223t-85 166t-132 103.5t-170.5 35.5q-102 0 -185.5 -42t-167.5 -134v522h-180v-1380zM352 541q0 184 78 279t215 95q129 0 208 -98t79 -266q0 -182 -76 -283.5t-205 -101.5q-137 0 -218 96.5t-81 278.5zM406 543 q0 -158 65.5 -243t175.5 -85q106 0 169 88t63 248q0 147 -63.5 232t-170.5 85q-117 0 -178 -80.5t-61 -244.5z" />
<glyph unicode="c" horiz-adv-x="1120" d="M61 545q0 137 36 244.5t102.5 182.5t162 114.5t216.5 39.5q215 0 342 -113.5t139 -310.5h-287q-25 176 -199 177q-208 0 -208 -335q0 -161 54 -244t156 -83q88 0 135.5 45t63.5 148h289q-6 -100 -46 -183.5t-104.5 -141.5t-151.5 -90t-192 -32q-238 0 -373 152.5 t-135 429.5zM113 543q0 -127 31.5 -225.5t90 -168t139.5 -105.5t179 -36q190 0 308 95.5t145 258.5h-191q-20 -94 -82.5 -143t-157.5 -49q-129 0 -196.5 96t-67.5 275q0 193 67.5 289t196.5 96q96 0 157 -45t81 -131h191q-27 152 -138.5 240.5t-287.5 88.5q-217 0 -341 -139 t-124 -397z" />
<glyph unicode="d" horiz-adv-x="1243" d="M74 551q0 135 33.5 242.5t95 181.5t148.5 112.5t196 38.5q100 0 175 -32.5t136 -104.5q-14 63 -14 78v406h282v-1473h-272v45q0 22 8 53q-117 -135 -311 -135q-109 0 -197 40t-150.5 115t-96 184.5t-33.5 248.5zM127 551q0 -129 30.5 -229.5t86 -170t135.5 -106.5 t178 -37q106 0 185 46t159 145v-154h174v1380h-180v-522q-84 92 -167 134t-185 42q-94 0 -171 -35.5t-131.5 -103.5t-84 -166t-29.5 -223zM315 551q0 168 78 266t209 98q137 0 215 -95t78 -279q0 -180 -80 -277.5t-217 -97.5q-129 0 -206 101.5t-77 283.5zM369 551 q0 -160 62.5 -248t168.5 -88q111 0 177.5 85t66.5 243q0 164 -62.5 244.5t-179.5 80.5q-106 0 -169.5 -85t-63.5 -232z" />
<glyph unicode="e" horiz-adv-x="1167" d="M68 551q0 133 35.5 239.5t101 181.5t161 114.5t212.5 39.5q248 0 384 -148.5t136 -430.5q0 -23 -1 -46.5t-3 -45.5h-723q8 -246 231 -246q166 0 191 121h288q-14 -80 -56 -147.5t-108.5 -116t-151.5 -76t-185 -27.5q-115 0 -209.5 40t-162 115t-104 184.5t-36.5 248.5z M123 551q0 -129 32.5 -229.5t92 -170t144.5 -106.5t188 -37q162 0 278.5 76t157.5 199h-193q-10 -49 -69.5 -85t-151.5 -36q-287 0 -287 334v6h727v43q0 262 -121.5 398t-342.5 136q-104 0 -188.5 -35.5t-144 -103.5t-91 -166t-31.5 -223zM319 612v25q0 135 73 213t190 78 q131 0 200.5 -78t69.5 -225v-13h-533zM373 657h426q-4 111 -58.5 168.5t-152.5 57.5t-156.5 -60.5t-58.5 -165.5z" />
<glyph unicode="f" horiz-adv-x="649" d="M8 870v217h156v101q0 295 307 295q41 0 79 -2t79 -4v-232h-76q-59 0 -83 -14t-24 -68v-76h183v-217h-180v-870h-285v870h-156zM59 918h156v-873h182v873h181v124h-181v129q0 63 30 91t103 28h45v142q-29 2 -52 3t-46 1q-141 0 -201.5 -61.5t-60.5 -200.5v-132h-156v-124z " />
<glyph unicode="g" horiz-adv-x="1224" d="M74 555q0 135 33.5 240.5t95 179.5t146.5 112.5t188 38.5q123 0 211 -39.5t122 -105.5q-12 45 -12 63v43h268v-1036q0 -127 -27.5 -220t-91 -154.5t-168 -91t-255.5 -29.5q-215 0 -337 87t-145 253h322q6 -111 174 -111q131 0 189.5 49t58.5 158v45q0 18 4 40.5t8 51.5 q-117 -131 -319 -131q-104 0 -189.5 38t-147 108.5t-95 174t-33.5 236.5zM127 555q0 -121 29.5 -216t85 -161.5t131.5 -101.5t168 -35q98 0 182 40t170 120v-201q0 -131 -72.5 -195.5t-226.5 -64.5q-88 0 -141.5 30.5t-63.5 77.5h-223q29 -117 138.5 -182t285.5 -65 q254 0 369.5 96t115.5 301v1046h-174v-141q-74 92 -162 135t-200 43q-90 0 -166 -35.5t-130.5 -103.5t-85 -166t-30.5 -221zM315 549q0 176 77 274.5t206 98.5q137 0 217 -94.5t80 -268.5q0 -178 -78 -270t-215 -92q-131 0 -209 95t-78 257zM369 551q0 -141 63.5 -223 t167.5 -82q242 0 242 313q0 152 -65.5 233.5t-176.5 81.5q-106 0 -168.5 -84.5t-62.5 -238.5z" />
<glyph unicode="h" horiz-adv-x="1222" d="M127 0v1473h291v-373q0 -29 -1 -59.5t-9 -65.5q111 141 313 141q182 0 280.5 -89t98.5 -249v-778h-291v651q0 111 -34 167t-130 56q-227 0 -227 -344v-530h-291zM178 47h189v459q0 416 280 416q121 0 167 -69t46 -204v-602h189v731q0 139 -87.5 215t-240.5 76 q-236 0 -354 -211v567h-189v-1378z" />
<glyph unicode="i" horiz-adv-x="557" d="M133 0v1087h291v-1087h-291zM133 1208v265h291v-265h-291zM184 45h189v997h-189v-997zM184 1253h189v172h-189v-172z" />
<glyph unicode="j" horiz-adv-x="557" d="M6 -201h57q51 0 60.5 30t9.5 95v1163h291v-1261q0 -139 -76 -204.5t-235 -65.5h-107v243zM57 -244v-153h43q141 0 207 51t66 172v1216h-189v-1101q0 -49 -2 -83t-14 -56.5t-38 -34t-73 -11.5zM133 1208v262h291v-262h-291zM184 1253h189v168h-189v-168z" />
<glyph unicode="k" d="M115 0v1473h284v-685q0 -29 -3 -59.5t-13 -64.5q20 39 40.5 64.5t37.5 43.5l282 315h351l-379 -403l401 -684h-348l-229 412q-8 16 -16.5 31.5t-10.5 37.5q-12 -25 -23.5 -37t-17.5 -20l-72 -80v-344h-284zM166 47h182v313l170 185l283 -498h170q16 0 34.5 -1t47.5 -11 q-25 20 -37 41.5t-23 38.5l-338 575l299 316q14 14 28.5 26t33.5 23q-55 -12 -76 -13h-172l-420 -475v858h-182v-1378z" />
<glyph unicode="l" horiz-adv-x="557" d="M133 0v1473h291v-1473h-291zM184 47h189v1378h-189v-1378z" />
<glyph unicode="m" horiz-adv-x="1792" d="M123 0v1087h274v-69q0 -14 -2 -28.5t-6 -31.5q100 158 318 158q182 0 272 -135q78 74 156.5 104.5t179.5 30.5q160 0 258 -93t98 -263v-760h-287v700q0 82 -44 124t-117 42q-84 0 -134.5 -54t-50.5 -153v-659h-284v698q0 166 -140 166q-117 0 -159.5 -83t-42.5 -251v-530 h-289zM174 47h186v492q0 372 253 372h1q106 0 148.5 -60t42.5 -177v-627h182v606q0 123 63.5 191.5t174.5 68.5q100 0 155.5 -53t55.5 -155v-658h184v735q0 131 -87 209t-235 78q-98 0 -171.5 -38t-157.5 -120q-53 84 -115.5 120t-155.5 36q-104 0 -188 -50t-160 -157v182 h-176v-995z" />
<glyph unicode="n" horiz-adv-x="1222" d="M127 0v1087h276v-69q0 -29 -6 -60q57 80 135 119t189 39q182 0 280.5 -89t98.5 -249v-778h-291v651q0 111 -34 167t-130 56q-227 0 -227 -344v-530h-291zM178 47h189v459q0 416 280 416q121 0 167 -69t46 -204v-602h189v731q0 139 -87.5 215t-240.5 76q-117 0 -202 -50 t-163 -161v184h-178v-995z" />
<glyph unicode="o" horiz-adv-x="1245" d="M72 545q0 135 37.5 242.5t108.5 183.5t173.5 115.5t231.5 39.5t231 -39.5t173 -115.5t109 -183.5t38 -242.5t-38 -242.5t-109 -183.5t-173 -116t-231 -40t-231.5 40t-173.5 116t-108.5 183.5t-37.5 242.5zM123 545q0 -254 133 -395.5t367 -141.5q236 0 366.5 139.5 t130.5 397.5t-131 396t-366 138q-236 0 -368 -139t-132 -395zM317 543q0 186 80 285.5t226 99.5q145 0 225 -100.5t80 -284.5t-79 -283.5t-226 -99.5t-226.5 98.5t-79.5 284.5zM369 545q0 -166 65.5 -252t188.5 -86t188.5 86t65.5 252q0 164 -67 250t-187 86 q-123 0 -188.5 -85t-65.5 -251z" />
<glyph unicode="p" horiz-adv-x="1243" d="M121 -436v1523h272v-45q0 -20 -8 -51q117 135 313 135q109 0 197 -39.5t149.5 -115.5t95.5 -185.5t34 -248.5q0 -135 -34 -242t-95.5 -180.5t-148.5 -112.5t-196 -39q-100 0 -174.5 33t-136.5 104q8 -35 11 -55t3 -25v-456h-282zM172 -389h180v575q84 -92 167 -135 t186 -43q94 0 170.5 36t131 103.5t84 166t29.5 223.5q0 129 -30.5 229t-86 170t-135.5 106.5t-178 36.5q-106 0 -185 -45t-159 -143v151h-174v-1431zM352 547q0 182 80 278.5t217 96.5q129 0 206 -101.5t77 -283.5q0 -168 -79 -265.5t-208 -97.5q-137 0 -215 94.5t-78 278.5 zM403 547q0 -164 62.5 -246t179.5 -82q106 0 170 86t64 234q0 160 -62.5 247.5t-169.5 87.5q-111 0 -177.5 -84.5t-66.5 -242.5z" />
<glyph unicode="q" horiz-adv-x="1243" d="M74 537q0 139 33.5 248.5t95 185.5t149.5 115.5t197 39.5q195 0 311 -135q-8 31 -8 51v45h274v-1523h-284v456q0 8 16 80q-61 -72 -136 -104.5t-175 -32.5q-109 0 -196 39t-148.5 112.5t-95 180t-33.5 242.5zM127 537q0 -125 29.5 -223.5t84 -166t131.5 -103.5t171 -36 q102 0 185 43t165 135v-575h182v1431h-174v-151q-80 98 -159.5 143t-186.5 45q-199 0 -313.5 -142t-114.5 -400zM315 537q0 182 77 283.5t206 101.5q137 0 216 -97.5t79 -277.5q0 -184 -77 -278.5t-214 -94.5q-131 0 -209 97.5t-78 265.5zM369 539q0 -147 63.5 -233.5 t169.5 -86.5q117 0 178.5 82t61.5 246q0 158 -65.5 242.5t-176.5 84.5q-106 0 -168.5 -87.5t-62.5 -247.5z" />
<glyph unicode="r" horiz-adv-x="774" d="M115 0v1087h276v-69q0 -14 -2 -28.5t-6 -31.5q47 76 125 117t166 41h67v-295h-96q-123 0 -181 -58t-58 -188v-575h-291zM166 45h188v528q0 141 72 218t205 77h57v199h-10q-100 0 -183 -55.5t-143 -167.5v198h-186v-997z" />
<glyph unicode="s" d="M66 346v8h290q4 -86 62.5 -125t177.5 -39q166 0 166 109q0 35 -16.5 53.5t-52.5 30.5t-90 23.5t-128 29.5q-96 25 -166.5 52.5t-117 66.5t-70 90t-23.5 119q0 166 118 264t329 98q217 0 341 -98t134 -272h-283q-4 70 -52 107.5t-138 37.5q-164 0 -164 -100 q0 -29 15.5 -45.5t51 -30.5t92 -26.5t138.5 -30.5q92 -20 162.5 -46t118 -63t71 -90t23.5 -127q0 -186 -129 -282.5t-381 -96.5q-229 0 -354 101.5t-125 281.5zM121 307q2 -66 31.5 -120t85 -93t133.5 -61.5t176 -22.5q223 0 338.5 84t115.5 240q0 63 -18 107t-55 77 t-93.5 55.5t-132.5 40.5q-94 23 -164.5 38.5t-116.5 32.5t-68.5 44t-22.5 70q0 72 53 110.5t162 38.5q98 0 159.5 -40t75.5 -105h183q-23 129 -131.5 201.5t-286.5 72.5q-186 0 -289.5 -85t-103.5 -226q0 -111 72.5 -173.5t226.5 -98.5q90 -23 157.5 -37.5t113.5 -32.5 t68.5 -47t22.5 -78q0 -74 -56.5 -115t-166.5 -41q-238 0 -279 164h-190z" />
<glyph unicode="t" horiz-adv-x="661" d="M10 870v217h144v297h288v-297h168v-217h-168v-563q0 -35 3.5 -54.5t13.5 -28.5t29.5 -11t50.5 -2h71v-219q-53 -2 -94 -4t-72 -2q-92 0 -149 17t-89 55t-42 96.5t-10 140.5v575h-144zM63 915h142v-618q0 -72 8 -121t34.5 -82t77 -47t136.5 -14q23 0 46 1t50 3v125h-41 q-45 0 -69.5 10t-37 31.5t-15.5 55.5t-3 81v575h170v123h-170v299h-186v-299h-142v-123z" />
<glyph unicode="u" horiz-adv-x="1222" d="M123 301v786h291v-659q0 -111 33.5 -167t130.5 -56q229 0 229 344v538h289v-1087h-277v61q0 29 6 60q-57 -80 -135 -119t-188 -39q-182 0 -280.5 89t-98.5 249zM174 301q0 -137 87 -214t241 -77q121 0 207 54.5t157 171.5v-189h178v995h-186v-469q0 -415 -282 -415h-1 q-121 0 -167 67.5t-46 202.5v614h-188v-741z" />
<glyph unicode="v" horiz-adv-x="1114" d="M18 1087h322l203 -585q10 -27 14 -51.5t8 -53.5q4 27 8.5 52.5t14.5 50.5l200 587h306l-387 -1087h-297zM86 1042l358 -995h228l356 995h-203l-260 -749l-260 749h-219z" />
<glyph unicode="w" horiz-adv-x="1566" d="M14 1087h310l135 -516q8 -31 16 -72.5t12 -99.5q8 57 16.5 99.5t16.5 70.5l144 518h237l141 -516q12 -43 21.5 -86t13.5 -86q6 59 15.5 101.5t15.5 66.5l133 520h309l-307 -1087h-289l-139 485q-12 43 -20.5 87t-12.5 92q-6 -63 -17 -106.5t-20 -72.5l-135 -485h-288z M78 1042l280 -995h215l209 707l209 -707h215l281 995h-209l-201 -725l-215 725h-160l-215 -725l-200 725h-209z" />
<glyph unicode="x" horiz-adv-x="1114" d="M20 0l367 555l-350 532h346l156 -256q20 -33 22 -65q2 23 8 37t15 28l153 256h336l-344 -528l365 -559h-355l-164 274q-4 6 -9 20.5t-9 37.5q-10 -41 -20 -56l-168 -276h-349zM109 47h231l217 348l211 -348h240l-336 512l315 483h-221l-205 -337l-207 337h-227l319 -487z " />
<glyph unicode="y" horiz-adv-x="1120" d="M20 1087h320l203 -618q8 -23 15 -53.5t11 -69.5q12 72 29 125l195 616h305l-445 -1282q-25 -68 -51.5 -114.5t-66 -77.5t-96 -44t-136.5 -13q-25 0 -55.5 2t-67.5 6v235h103q72 0 103.5 27t31.5 98q0 20 -4 47t-15 56zM88 1042l358 -1013q18 -55 19 -105q0 -84 -43 -128 t-129 -44h-62v-145q49 -6 78 -6q66 0 113 11t80 36.5t56.5 65.5t43.5 98l428 1230h-201l-260 -817l-266 817h-215z" />
<glyph unicode="z" horiz-adv-x="997" d="M27 0v223l518 596q12 14 27.5 26.5t37.5 22.5q-31 -10 -53 -11t-39 -1h-457v231h867v-237l-504 -576q-12 -14 -25.5 -24t-33.5 -21q25 10 43 11.5t32 1.5h508v-242h-921zM78 45h817v150h-604l583 667v180h-761v-141h575l-610 -694v-162z" />
<glyph unicode="{" horiz-adv-x="1024" d="M180 494v73q14 -2 26.5 -2h24.5q143 0 199.5 66.5t56.5 224.5v238q0 106 12.5 179t48.5 118t98.5 65.5t164.5 20.5h33v-70h-37q-76 0 -122 -14.5t-71.5 -46t-35 -85t-9.5 -128.5v-242q0 -78 -7 -136.5t-27.5 -101.5t-58.5 -73.5t-99 -49.5q61 -18 99 -48.5t58.5 -73.5 t27.5 -102.5t7 -135.5v-242q0 -78 9.5 -130t35 -83.5t71.5 -46t122 -14.5h37v-68h-33q-102 0 -164.5 20.5t-98.5 65.5t-48.5 118t-12.5 177v238q0 158 -57 224.5t-205 66.5q-10 0 -21 -1t-24 -1z" />
<glyph unicode="|" horiz-adv-x="1024" d="M475 -483v2048h74v-2048h-74z" />
<glyph unicode="}" horiz-adv-x="1024" d="M182 -344h39q74 0 120 13.5t71.5 45t34 83.5t8.5 130v242q0 76 7 135.5t28.5 102.5t59.5 73.5t99 48.5q-61 18 -99 49t-59.5 74t-28.5 101.5t-7 136.5v242q0 78 -8.5 130t-34 84.5t-71.5 46t-122 13.5h-37v70h33q100 0 162.5 -20.5t98.5 -65.5t48.5 -118t12.5 -179v-238 q0 -78 13 -133t44 -90t80 -51.5t121 -16.5h24t27 2v-73q-12 0 -23.5 1t-21.5 1q-147 0 -205.5 -67t-58.5 -224v-238q0 -104 -12.5 -177t-48.5 -118t-98.5 -65.5t-162.5 -20.5h-33v70z" />
<glyph unicode="~" horiz-adv-x="1705" d="M178 489v74q205 150 387 150q45 0 92.5 -10.5t100.5 -28.5q102 -35 195.5 -70t189.5 -35q90 0 183 41t204 119v-72q-211 -150 -387 -149q-84 0 -153.5 21.5t-135.5 45.5q-76 29 -145.5 52.5t-143.5 23.5q-92 0 -184 -42t-203 -120z" />
<glyph unicode="&#xa1;" horiz-adv-x="665" d="M215 0v397l78 666h151l78 -666v-397h-307zM219 1178v295h299v-295h-299zM268 49h201v357l-70 612h-61l-70 -612v-357zM274 1223h191v202h-191v-202z" />
<glyph unicode="&#xa2;" d="M61 543q0 276 139.5 428.5t387.5 152.5h24.5t24.5 -2l43 162h192l-57 -207q117 -57 178.5 -152.5t65.5 -222.5h-279q-4 31 -13 57.5t-26 53.5l-168 -606h17q164 0 194 203h279q-23 -211 -153 -329t-347 -118h-28.5t-28.5 2l-57 -211h-193l72 260q-131 70 -199 203 t-68 326zM113 543q0 -381 270 -500l-68 -242h97l59 213q37 -4 63.5 -4h45.5q82 0 153.5 24.5t128 71t94 112t50.5 144.5h-183q-43 -203 -237 -202q-12 0 -29.5 1t-42.5 3l205 737q47 -35 69.5 -70.5t30.5 -80.5h185q-25 213 -244 299l53 188h-96l-47 -164q-43 4 -70 4h-39 q-102 0 -185 -35.5t-141.5 -105.5t-90 -169t-31.5 -224zM301 541q0 195 70.5 295t193.5 100h21.5t44.5 -4l-203 -731q-127 109 -127 340zM352 543q0 -78 12.5 -137.5t43.5 -106.5l161 586q-4 0 -10 1t-10 1q-92 0 -144.5 -89t-52.5 -255z" />
<glyph unicode="&#xa3;" d="M45 170q111 78 166 146.5t55 158.5q0 35 -8 69t-25 70h-188v185h92q-35 72 -52 132t-17 120q0 82 31.5 155.5t93 128t150.5 86t202 31.5q233 0 364 -120t144 -343h-279q-8 117 -64.5 177.5t-154.5 60.5q-96 0 -146.5 -51.5t-50.5 -143.5q0 -49 26 -104.5t58 -128.5h299 v-185h-233q4 -25 7 -48t3 -46q0 -80 -42 -157.5t-120 -139.5q94 41 176 41q37 0 73 -8t70 -17.5t65.5 -16.5t62.5 -7q96 0 194 68l88 -222q-170 -102 -307 -102q-51 0 -100 12.5t-98.5 27.5t-97.5 28.5t-99 13.5q-53 0 -111.5 -20.5t-111.5 -61.5zM96 659h170 q51 -96 51 -180q0 -94 -52 -167.5t-159 -157.5l70 -134q47 35 104.5 51.5t110.5 16.5q45 0 92 -13.5t95.5 -28.5t99.5 -27.5t106 -12.5t116 19.5t124 54.5l-53 137q-78 -49 -168 -49q-31 0 -62.5 7t-65.5 16.5t-70 17.5t-73 8q-61 0 -126.5 -15.5t-143.5 -37.5 q98 104 151.5 186t53.5 168q0 33 -6 66.5t-17 74.5h244v93h-280q-41 86 -72 153.5t-31 134.5q0 106 63.5 170t186.5 64q115 0 184.5 -62.5t85.5 -177.5h168q-23 180 -138.5 275.5t-311.5 95.5q-100 0 -179 -27.5t-133.5 -75t-83 -111t-28.5 -136.5q0 -68 27.5 -140.5 t72.5 -162.5h-123v-93z" />
<glyph unicode="&#xa4;" horiz-adv-x="1241" d="M94 418l207 205q-92 117 -92 262t92 262l-207 205l58 59l206 -207q119 94 263 94q145 0 264 -94l205 207l59 -59l-207 -205q92 -117 92 -262t-92 -262l207 -205l-59 -60l-205 207q-117 -92 -264 -92q-145 0 -263 92l-206 -207zM291 887q0 -68 25.5 -128.5t70.5 -105.5 t105.5 -71.5t130.5 -26.5t130 26.5t105 71.5t70.5 105.5t25.5 128.5t-25.5 128t-70.5 105t-105 71t-130 26t-130.5 -27t-105.5 -71t-70.5 -104.5t-25.5 -127.5z" />
<glyph unicode="&#xa5;" horiz-adv-x="1351" d="M53 1411h353l253 -496q12 -25 23.5 -51t15.5 -63q4 35 13.5 61.5t23.5 55.5l236 493h327l-360 -702h311v-183h-405v-526h-291v526h-416v183h312zM135 1366l393 -704h-340v-89h394l22 -38v-488h191v485l22 41h381v89h-338l363 704h-222l-303 -631l-321 631h-242z" />
<glyph unicode="&#xa6;" horiz-adv-x="1024" d="M475 -350v758h74v-758h-74zM475 674v758h74v-758h-74z" />
<glyph unicode="&#xa7;" horiz-adv-x="1024" d="M53 692q0 180 180 271q-106 80 -106 211q0 76 26.5 138t76 107t119 69.5t155.5 24.5q178 0 278.5 -92t100.5 -252h-236q-4 139 -147 140q-129 0 -129 -103q0 -47 43 -77.5t139 -79.5l164 -84q63 -33 110 -63t79 -64.5t48.5 -76.5t16.5 -97q0 -98 -52.5 -170t-144.5 -95 q72 -41 103.5 -100t31.5 -149q0 -74 -27.5 -138.5t-77.5 -111.5t-123 -75t-163 -28q-193 0 -296 93.5t-107 271.5h247q14 -156 156 -156q70 0 105.5 32t35.5 91q0 29 -12 50.5t-36.5 41t-63.5 39t-90 45.5l-178 90q-225 113 -226 297zM104 696q0 -154 183 -247l149 -80 q61 -33 111.5 -57.5t86.5 -50t56.5 -56.5t20.5 -76q0 -80 -50.5 -125t-142.5 -45q-168 0 -201 156h-147q14 -129 103 -201t243 -72q80 0 143.5 26t108.5 69t68.5 99t23.5 118q0 78 -36 137t-107 110q102 53 151.5 111.5t49.5 144.5q0 53 -14.5 91t-42 67t-67.5 52.5 t-92 50.5l-145 75q-55 29 -100 52.5t-76 47t-47.5 50t-16.5 63.5q0 66 47.5 107t133.5 41q84 0 136 -38t56 -99h139q-16 117 -100 182t-225 65q-152 0 -239 -79.5t-87 -210.5q0 -66 26.5 -115t84.5 -96q-94 -63 -139.5 -125t-45.5 -142zM225 743q0 96 131 179l277 -146 q76 -41 114.5 -76.5t38.5 -93.5q0 -49 -34.5 -89t-102.5 -81l-233 121q-43 23 -79 42t-60.5 39.5t-38 45.5t-13.5 59zM276 752q0 -51 41 -80t119 -70l213 -110q43 29 63.5 54t20.5 60q0 43 -31.5 71t-93.5 60l-252 129q-80 -53 -80 -114z" />
<glyph unicode="&#xa8;" horiz-adv-x="1024" d="M231 1223v235h220v-235h-220zM281 1264h120v151h-120v-151zM573 1223v235h220v-235h-220zM621 1264h122v151h-122v-151z" />
<glyph unicode="&#xa9;" horiz-adv-x="1705" d="M125 719q0 145 55.5 277t159.5 239q104 104 233 157.5t279 53.5t281 -53.5t237 -159.5q104 -104 157.5 -235.5t53.5 -278.5q0 -150 -52 -280t-157 -232q-106 -104 -240.5 -160.5t-279.5 -56.5t-276.5 55t-235.5 160q-104 104 -159.5 236t-55.5 278zM188 719 q0 -131 50.5 -251t146.5 -216t216 -147.5t251 -51.5t253 51.5t220 149.5q94 92 143.5 210t49.5 255q0 135 -49.5 255t-143.5 214q-98 98 -218 146t-255 48t-253 -48t-212 -144q-96 -98 -147.5 -219t-51.5 -252zM475 717q0 106 27.5 191t79 144.5t122 90.5t156.5 31 q129 0 218 -70t104 -182h-80q-23 88 -87.5 137t-160.5 49q-135 0 -213 -101.5t-78 -289.5q0 -180 81 -282.5t210 -102.5q102 0 174 57t88 152h74q-6 -59 -34 -110.5t-74 -88.5t-106.5 -57.5t-129.5 -20.5q-84 0 -151.5 32t-117 90t-76 142t-26.5 189z" />
<glyph unicode="&#xaa;" horiz-adv-x="839" d="M53 926q0 201 244 239q68 10 116 14.5t77.5 10.5t44 18.5t14.5 38.5q0 45 -22.5 68.5t-104.5 23.5q-70 0 -102.5 -20.5t-32.5 -73.5v-12h-205v14q0 119 88 185.5t254 66.5q160 0 248 -56.5t88 -158.5v-432q0 -43 9 -67.5t38 -39.5v-34h-227q-18 37 -19 63v12 q-96 -102 -268 -102q-111 0 -175.5 61.5t-64.5 180.5zM92 926q0 -104 57.5 -156.5t163.5 -52.5q70 0 142 32.5t129 98.5q0 -70 16 -105h160q-23 14 -31 40t-8 69v424q0 92 -77 141t-218 49t-222 -54t-81 -144v-4h127q14 109 174 108q88 0 126 -27.5t38 -87.5 q0 -33 -11.5 -52t-37 -31.5t-68.5 -19.5t-104 -15q-135 -16 -205 -59.5t-70 -153.5zM231 938q0 86 117 113q39 8 100.5 14t139.5 39v-76q0 -98 -61.5 -144t-159.5 -46q-66 0 -101 26.5t-35 73.5zM268 940q0 -33 28 -52.5t77 -19.5q72 0 125 37t53 99v57 q-59 -18 -111.5 -27.5t-90.5 -18.5t-59.5 -24.5t-21.5 -50.5z" />
<glyph unicode="&#xab;" horiz-adv-x="1112" d="M133 438v211l361 312v-271l-168 -145l168 -148v-270zM186 457l265 -232v150l-168 141v55l168 142v149l-265 -231v-174zM575 438v211l361 312v-271l-168 -145l168 -148v-270zM629 457l264 -232v150l-166 141v55l166 142v149l-264 -231v-174z" />
<glyph unicode="&#xac;" horiz-adv-x="1705" d="M254 793v61h1198v-502h-61v441h-1137z" />
<glyph unicode="&#xad;" horiz-adv-x="661" d="M51 408v274h559v-274h-559zM102 453h457v182h-457v-182z" />
<glyph unicode="&#xae;" horiz-adv-x="1705" d="M125 719q0 145 55.5 277t159.5 239q104 104 233 157.5t279 53.5q147 0 279.5 -53.5t238.5 -157.5q104 -104 157.5 -236.5t53.5 -279.5q0 -150 -52 -279t-157 -231q-109 -106 -242 -162.5t-278 -56.5t-276.5 55t-235.5 160q-104 104 -159.5 236t-55.5 278zM188 719 q0 -131 51.5 -251t147.5 -216t215 -147.5t250 -51.5t254 51.5t221 149.5q190 186 191 465q0 135 -50.5 255t-144.5 214q-98 96 -217 145t-254 49t-254 -48t-213 -144q-96 -98 -146.5 -219t-50.5 -252zM573 305v850h304q176 0 261 -54t85 -181q0 -86 -55.5 -146.5 t-151.5 -71.5l192 -397h-104l-182 383h-260v-383h-89zM662 760h190q70 0 121 7t84 25.5t48 50t15 83.5q0 86 -65.5 121.5t-200.5 35.5h-192v-323z" />
<glyph unicode="&#xaf;" horiz-adv-x="1024" d="M231 1303v174h562v-174h-562zM279 1346h464v88h-464v-88z" />
<glyph unicode="&#xb0;" horiz-adv-x="673" d="M68 1178q0 57 21.5 106t58 86t86 57.5t104.5 20.5t103 -21.5t85 -58.5t58.5 -86t21.5 -104t-20.5 -103.5t-57 -85.5t-86 -58.5t-106.5 -21.5t-106.5 20.5t-85 57.5t-56 86t-20.5 105zM119 1178q0 -47 17.5 -87t47 -69t69.5 -46.5t85 -17.5t85 17.5t69.5 47.5t46 70 t16.5 85t-17.5 85t-46 69.5t-68.5 47t-85 17.5t-85 -17.5t-69.5 -46t-47 -69.5t-17.5 -86z" />
<glyph unicode="&#xb1;" horiz-adv-x="1705" d="M254 72v61h1198v-61h-1198zM254 733v62h569v356h62v-356h567v-62h-567v-358h-62v358h-569z" />
<glyph unicode="&#xb2;" horiz-adv-x="737" d="M41 565q2 63 19.5 111.5t50 89.5t77.5 78t105 76q45 31 82 56t63.5 50t40 52.5t13.5 66.5q0 141 -136 141q-66 0 -95.5 -39t-29.5 -125v-6h-186v12q0 154 80 231t233 77q152 0 240 -77t88 -202q0 -96 -51 -164.5t-148 -134.5q-74 -51 -128 -82t-76 -65h403v-146h-645z M78 594h573v90h-411q0 25 14 45.5t41 39.5t62.5 42t80.5 51q104 66 157.5 132.5t53.5 162.5q0 113 -76.5 182.5t-212.5 69.5q-135 0 -205.5 -67.5t-72.5 -196.5h117q8 168 157 168q82 0 126 -42t44 -124q0 -41 -13 -72t-38.5 -57.5t-62.5 -51t-82 -55.5q-51 -35 -95.5 -66.5 t-77 -68.5t-53 -81t-26.5 -101z" />
<glyph unicode="&#xb3;" horiz-adv-x="737" d="M37 825v6h182q0 -147 141 -147q61 0 96.5 33t35.5 92q0 74 -40 106.5t-130 32.5h-37v121h20q86 0 124 26.5t38 92.5q0 111 -123 110q-119 0 -119 -120v-19h-180q4 135 80 206t221 71t228 -64.5t83 -171.5q0 -123 -114 -172q70 -20 108.5 -75.5t38.5 -135.5 q0 -123 -89 -199.5t-245 -76.5q-154 0 -236.5 73.5t-82.5 210.5zM74 803q8 -113 79.5 -173.5t202.5 -60.5q137 0 218 68t81 178q0 76 -37.5 127t-117.5 86q125 61 125 170q0 94 -75 152.5t-204 58.5q-123 0 -191.5 -57.5t-72.5 -163.5h111q4 66 42.5 101.5t108.5 35.5 q74 0 116 -36t42 -101q0 -74 -43 -109t-140 -39v-65h17q190 0 190 -156q0 -164 -170 -164q-72 0 -115.5 38t-54.5 110h-112z" />
<glyph unicode="&#xb4;" horiz-adv-x="1024" d="M330 1198l229 328h350l-385 -328h-194zM416 1241h90l285 242h-205z" />
<glyph unicode="&#xb6;" horiz-adv-x="1024" d="M98 1130q0 76 28 140.5t79 110.5t123.5 72t165.5 26h432v-58h-133v-1421h-58v1421h-198v-1421h-58v782q-180 8 -280.5 103.5t-100.5 244.5z" />
<glyph unicode="&#xb7;" horiz-adv-x="559" d="M119 702q0 66 45 111t110 45q66 0 111 -45t45 -111q0 -63 -45 -109t-111 -46t-110.5 44.5t-44.5 110.5zM164 702q0 -47 32.5 -77.5t77.5 -30.5q47 0 78 32.5t31 75.5q0 47 -32 78t-77 31t-77.5 -30.5t-32.5 -78.5z" />
<glyph unicode="&#xb8;" horiz-adv-x="1024" d="M270 -299q80 -29 144.5 -36t124.5 -7q82 0 82 55q0 31 -29 41t-90 10q-12 0 -27.5 -1t-32.5 -1v129h146q236 0 235 -180q0 -193 -276 -192q-47 0 -116 9t-161 32v141zM317 -354v-52q123 -33 232 -32q115 0 171 34.5t56 112.5q0 88 -60.5 116t-170.5 28h-56v-50h23 q150 0 150 -90q0 -96 -138 -96q-53 0 -104 8t-103 21z" />
<glyph unicode="&#xb9;" horiz-adv-x="737" d="M82 1161v121h8q125 0 182.5 33t69.5 121h152v-871h-187v596h-225zM115 1190h227v-598h117v817h-84q-23 -86 -83.5 -119t-176.5 -35v-65z" />
<glyph unicode="&#xba;" horiz-adv-x="933" d="M53 1092q0 190 109.5 298.5t304.5 108.5t304.5 -108.5t109.5 -298.5t-109.5 -299t-304.5 -109t-304.5 109t-109.5 299zM92 1092q0 -178 100.5 -276.5t274.5 -98.5q176 0 274.5 97t98.5 278q0 180 -98.5 277t-274.5 97t-275.5 -97t-99.5 -277zM238 1090q0 131 60 200.5 t169 69.5q111 0 170 -70.5t59 -199.5t-59 -198t-170 -69t-170 69t-59 198zM276 1092q0 -117 49.5 -176.5t141.5 -59.5t141 59.5t49 176.5q0 115 -49 175t-141 60t-141.5 -59t-49.5 -176z" />
<glyph unicode="&#xbb;" horiz-adv-x="1112" d="M170 127v270l170 148l-170 145v271l360 -312v-211zM213 225l264 232v174l-264 231v-149l168 -142v-55l-168 -141v-150zM614 127v270l168 148l-168 145v271l359 -312v-211zM657 225l265 232v174l-265 231v-149l166 -142v-55l-166 -141v-150z" />
<glyph unicode="&#xbc;" horiz-adv-x="1751" d="M80 1178v112h8q119 0 174 30t66 114h145v-813h-178v557h-215zM113 1202h215v-557h112v764h-82q-23 -82 -79 -111.5t-166 -33.5v-62zM342 -41l854 1473h211l-854 -1473h-211zM416 0h108l811 1391h-108zM1079 176v143l314 472h223v-486h100v-129h-100v-176h-174v176h-363z M1110 203h365v-178h108v178h100v76h-100v487h-170l-303 -453v-110zM1194 279l281 419v-419h-281zM1247 305h195v178q0 35 2 72t12 80q-23 -47 -49 -86z" />
<glyph unicode="&#xbd;" horiz-adv-x="1751" d="M80 1178v112h8q119 0 174 30t66 114h145v-813h-178v557h-215zM113 1202h215v-557h112v764h-82q-23 -82 -79 -111.5t-166 -33.5v-62zM342 -41l854 1473h211l-854 -1473h-211zM416 0h108l811 1391h-108zM1085 0q2 57 19.5 103.5t48.5 84t74 72.5t98 72q43 29 79 51.5 t60.5 46t38 49t13.5 62.5q0 133 -130 133q-63 0 -90.5 -38t-27.5 -116v-6h-178v10q0 289 299 289q143 0 227 -71.5t84 -190.5q0 -90 -48 -152.5t-141 -126.5q-72 -47 -123 -75.5t-71 -59.5h385v-137h-617zM1120 27h549v84h-393q2 47 52 79.5t136 85.5q100 63 151.5 124 t51.5 151q0 106 -73.5 170.5t-202.5 64.5q-262 0 -267 -245h113q6 158 149 157q162 0 162 -155q0 -39 -12 -68t-36.5 -53.5t-59.5 -48t-78 -51.5q-49 -33 -91 -63t-74 -63.5t-51.5 -74.5t-25.5 -94z" />
<glyph unicode="&#xbe;" horiz-adv-x="1751" d="M37 864v6h172q0 -139 135 -139q125 0 125 117q0 70 -38 100.5t-124 30.5h-18t-19 -2v115h21q82 0 117.5 24.5t35.5 83.5q0 104 -114 105q-115 0 -115 -113v-16h-172q4 127 77 192.5t210 65.5q139 0 219 -60.5t80 -159.5q0 -115 -111 -161q66 -18 103.5 -69.5t37.5 -127.5 q0 -115 -86 -186.5t-233 -71.5t-225 68.5t-78 197.5zM72 844q6 -106 74.5 -162.5t193.5 -56.5q131 0 209 62.5t78 166.5q0 72 -37 119t-113 80q119 57 119 157q0 90 -71.5 143.5t-194.5 53.5q-117 0 -182.5 -53.5t-69.5 -153.5h104q4 63 42 97t104 34q72 0 111.5 -33.5 t39.5 -95.5q0 -70 -41 -101.5t-133 -35.5v-61h14q184 0 185 -148q0 -74 -43 -112.5t-121 -38.5q-143 0 -162 139h-106zM342 -41l854 1473h211l-854 -1473h-211zM416 0h108l811 1391h-108zM1079 176v143l314 472h223v-486h100v-129h-100v-176h-174v176h-363zM1110 203h365 v-178h108v178h100v76h-100v487h-170l-303 -453v-110zM1194 279l281 419v-419h-281zM1247 305h195v178q0 35 2 72t12 80q-23 -47 -49 -86z" />
<glyph unicode="&#xbf;" horiz-adv-x="1220" d="M139 389q0 78 19.5 137.5t68.5 116.5q43 51 98.5 89t108.5 83q43 35 56.5 72t13.5 92q0 10 -1 21.5t-1 23.5h268v-59q0 -80 -16.5 -141.5t-75.5 -123.5q-41 -41 -82 -71.5t-75 -61t-55.5 -67.5t-21.5 -90q0 -98 51.5 -150.5t141.5 -52.5q205 0 217 237h283v-28 q0 -102 -35 -186.5t-98.5 -144.5t-155.5 -93t-205 -33q-119 0 -212 32t-157.5 89t-99.5 136t-35 173zM193 403q0 -90 30.5 -162.5t88 -125t141.5 -81t190 -28.5q205 0 319.5 105.5t122.5 285.5h-188q-14 -111 -79.5 -172t-170.5 -61q-123 0 -187.5 63.5t-64.5 180.5 q0 59 19.5 100t52.5 73.5t74 63.5t82 70q53 49 75.5 101t22.5 124v37h-168v-10q0 -57 -17.5 -99.5t-58.5 -76.5q-53 -47 -103 -84t-91 -78t-65.5 -94.5t-24.5 -131.5zM489 1178v295h295v-295h-295zM541 1225h190v200h-190v-200z" />
<glyph unicode="&#xc0;" horiz-adv-x="1456" d="M25 0l526 1473h354l527 -1473h-336l-99 303h-540l-99 -303h-333zM94 47h232l96 303h608l103 -303h229l-492 1378h-284zM332 1911h350l229 -328h-194zM450 1868l285 -242h90l-170 242h-205zM477 520l240 746l256 -746h-496zM541 567h364l-157 475q-10 29 -18.5 58.5 t-12.5 62.5q-8 -68 -25 -121z" />
<glyph unicode="&#xc1;" horiz-adv-x="1456" d="M25 0l526 1473h354l527 -1473h-336l-99 303h-540l-99 -303h-333zM94 47h232l96 303h608l103 -303h229l-492 1378h-284zM477 520l240 746l256 -746h-496zM541 567h364l-157 475q-10 29 -18.5 58.5t-12.5 62.5q-8 -68 -25 -121zM547 1583l229 328h350l-385 -328h-194z M633 1626h90l285 242h-205z" />
<glyph unicode="&#xc2;" horiz-adv-x="1456" d="M25 0l526 1473h354l527 -1473h-336l-99 303h-540l-99 -303h-333zM94 47h232l96 303h608l103 -303h229l-492 1378h-284zM385 1583l229 328h230l229 -328h-201l-143 129l-143 -129h-201zM469 1626h96l164 145l164 -145h96l-170 242h-180zM477 520l240 746l256 -746h-496z M541 567h364l-157 475q-10 29 -18.5 58.5t-12.5 62.5q-8 -68 -25 -121z" />
<glyph unicode="&#xc3;" horiz-adv-x="1456" d="M25 0l526 1473h354l527 -1473h-336l-99 303h-540l-99 -303h-333zM94 47h232l96 303h608l103 -303h229l-492 1378h-284zM395 1602q16 137 61.5 199.5t137.5 62.5q35 0 65 -9l123 -32q20 -6 47 -6q70 0 90 77h144q-10 -129 -61.5 -198.5t-155.5 -69.5q-23 0 -47 6l-131 35 q-10 4 -21.5 6t-28.5 2q-57 0 -82 -73h-141zM450 1645h58q10 35 42 54t70 19q33 0 60 -8l119 -31q14 -4 27.5 -6t25.5 -2q133 0 156 180h-62q-29 -80 -115 -80q-14 0 -28.5 2.5t-30.5 6.5l-119 28q-27 8 -57 9q-63 0 -97 -41t-49 -131zM477 520l240 746l256 -746h-496z M541 567h364l-157 475q-10 29 -18.5 58.5t-12.5 62.5q-8 -68 -25 -121z" />
<glyph unicode="&#xc4;" horiz-adv-x="1456" d="M25 0l526 1473h354l527 -1473h-336l-99 303h-540l-99 -303h-333zM94 47h232l96 303h608l103 -303h229l-492 1378h-284zM448 1608v235h220v-235h-220zM477 520l240 746l256 -746h-496zM498 1649h120v151h-120v-151zM541 567h364l-157 475q-10 29 -18.5 58.5t-12.5 62.5 q-8 -68 -25 -121zM790 1608v235h220v-235h-220zM838 1649h122v151h-122v-151z" />
<glyph unicode="&#xc5;" horiz-adv-x="1456" d="M25 0l512 1436h383l512 -1436h-336l-99 303h-540l-99 -303h-333zM94 47h232l96 303h608l103 -303h229l-477 1337h-314zM477 520l240 746l256 -746h-496zM512 1690q0 45 17.5 83.5t47 68.5t68.5 47.5t84 17.5t84 -17.5t67.5 -47.5t46 -68.5t17.5 -83.5t-17.5 -85t-46 -69 t-68.5 -46t-83 -17q-45 0 -84 17t-68.5 47t-47 69t-17.5 84zM541 567h364l-157 475q-10 29 -18.5 58.5t-12.5 62.5q-8 -68 -25 -121zM557 1690q0 -72 50 -122t122 -50q35 0 65.5 13t53 36.5t36 54.5t13.5 68q0 72 -48 121t-120 49t-122 -49t-50 -121zM643 1688 q0 37 24.5 61.5t61.5 24.5t60.5 -24t23.5 -62q0 -35 -23.5 -59.5t-60.5 -24.5t-61.5 24.5t-24.5 59.5zM680 1690q0 -20 13.5 -34t35.5 -14q20 0 33.5 13.5t13.5 34.5q0 23 -13 35t-34 12q-23 0 -36 -12t-13 -35z" />
<glyph unicode="&#xc6;" horiz-adv-x="2080" d="M2 0l582 1473h1366v-256h-723v-314h657v-252h-657v-379h760v-272h-1053v303h-485l-111 -303h-336zM72 47h231l111 303h571v-303h948v178h-759v471h657v160h-657v408h722v161h-1278zM475 520l275 750h235v-750h-510zM545 567h389v656h-152z" />
<glyph unicode="&#xc7;" horiz-adv-x="1456" d="M84 735q0 184 45 327.5t132 244t214 152.5t289 52q127 0 235.5 -37.5t189.5 -107.5t131 -167t62 -214h-305q-43 254 -325 254q-80 0 -145.5 -34t-113 -98.5t-73 -158.5t-25.5 -213t27 -212t75 -157.5t115.5 -98.5t151.5 -34q129 0 215 73t102 200h303q-8 -115 -53 -211 t-118.5 -167t-174 -114t-219.5 -51v-72h19q104 0 160.5 -47t56.5 -133q0 -193 -277 -192q-47 0 -115.5 9t-160.5 32v141q63 -23 124.5 -33t127.5 -10q49 0 72.5 12.5t23.5 42.5q0 31 -28.5 41t-90.5 10q-12 0 -27.5 -1t-31.5 -1v203q-276 29 -432 227.5t-156 542.5zM135 735 q0 -168 40 -299t115 -224t183.5 -145.5t245.5 -60.5v-203h22q152 0 152 -90q0 -96 -139 -96q-94 0 -205 29v-52q119 -33 231 -32q115 0 171.5 34.5t56.5 112.5q0 143 -199 144h-33v155q111 2 205 36t165 92.5t117 140t62 182.5h-201q-31 -129 -127 -201t-231 -72 q-94 0 -172 37t-134.5 107.5t-87 173t-30.5 231.5q0 262 113.5 405.5t312.5 143.5q141 0 231.5 -65.5t120.5 -186.5h203q-18 98 -66.5 177t-120 136.5t-167 88t-205.5 30.5q-299 0 -464 -189.5t-165 -539.5z" />
<glyph unicode="&#xc8;" horiz-adv-x="1357" d="M156 0v1473h1069v-256h-770v-314h704v-252h-704v-379h809v-272h-1108zM207 47h1003v178h-807v471h705v160h-705v408h768v161h-964v-1378zM295 1911h350l229 -328h-194zM413 1868l285 -242h90l-170 242h-205z" />
<glyph unicode="&#xc9;" horiz-adv-x="1357" d="M156 0v1473h1069v-256h-770v-314h704v-252h-704v-379h809v-272h-1108zM207 47h1003v178h-807v471h705v160h-705v408h768v161h-964v-1378zM510 1583l229 328h350l-385 -328h-194zM596 1626h90l285 242h-205z" />
<glyph unicode="&#xca;" horiz-adv-x="1357" d="M156 0v1473h1069v-256h-770v-314h704v-252h-704v-379h809v-272h-1108zM207 47h1003v178h-807v471h705v160h-705v408h768v161h-964v-1378zM348 1583l229 328h230l229 -328h-201l-143 129l-143 -129h-201zM432 1626h96l164 145l164 -145h96l-170 242h-180z" />
<glyph unicode="&#xcb;" horiz-adv-x="1357" d="M156 0v1473h1069v-256h-770v-314h704v-252h-704v-379h809v-272h-1108zM207 47h1003v178h-807v471h705v160h-705v408h768v161h-964v-1378zM411 1608v235h220v-235h-220zM461 1649h120v151h-120v-151zM753 1608v235h220v-235h-220zM801 1649h122v151h-122v-151z" />
<glyph unicode="&#xcc;" horiz-adv-x="561" d="M-114 1911h350l229 -328h-194zM4 1868l285 -242h90l-170 242h-205zM129 0v1473h303v-1473h-303zM180 47h201v1378h-201v-1378z" />
<glyph unicode="&#xcd;" horiz-adv-x="561" d="M101 1583l229 328h350l-385 -328h-194zM129 0v1473h303v-1473h-303zM180 47h201v1378h-201v-1378zM187 1626h90l285 242h-205z" />
<glyph unicode="&#xce;" horiz-adv-x="561" d="M-61 1583l229 328h230l229 -328h-201l-143 129l-143 -129h-201zM23 1626h96l164 145l164 -145h96l-170 242h-180zM129 0v1473h303v-1473h-303zM180 47h201v1378h-201v-1378z" />
<glyph unicode="&#xcf;" horiz-adv-x="561" d="M2 1608v235h220v-235h-220zM52 1649h120v151h-120v-151zM129 0v1473h303v-1473h-303zM180 47h201v1378h-201v-1378zM344 1608v235h220v-235h-220zM392 1649h122v151h-122v-151z" />
<glyph unicode="&#xd0;" horiz-adv-x="1470" d="M0 653v217h158v603h641q143 0 252.5 -50.5t184.5 -144.5t114 -231.5t39 -311.5q0 -166 -45.5 -302t-124 -232.5t-186 -148.5t-232.5 -52h-643v653h-158zM51 700h158v-653h582q119 0 219 48t172.5 138.5t112.5 218.5t40 285q0 334 -139 511t-410 177h-577v-602h-158v-123z M403 219v481h312v123h-312v439h345q188 0 284 -134.5t96 -392.5q0 -252 -100 -384t-295 -132h-330zM455 266h278q174 0 258 115t84 354q0 238 -82 358.5t-243 120.5h-295v-344h311v-217h-311v-387z" />
<glyph unicode="&#xd1;" horiz-adv-x="1458" d="M139 0v1473h318l477 -838q6 -12 34.5 -71.5t78.5 -166.5q-25 162 -25 250v826h297v-1473h-311l-473 831q-16 31 -48 91.5t-73 154.5q25 -182 24 -254v-823h-299zM190 47h197v1131l649 -1131h232v1378h-195v-1128l-649 1128h-234v-1378zM395 1602q16 137 61.5 199.5 t137.5 62.5q35 0 65 -9l123 -32q20 -6 47 -6q70 0 90 77h144q-10 -129 -61.5 -198.5t-155.5 -69.5q-23 0 -47 6l-131 35q-10 4 -21.5 6t-28.5 2q-57 0 -82 -73h-141zM450 1645h58q10 35 42 54t70 19q33 0 60 -8l119 -31q14 -4 27.5 -6t25.5 -2q133 0 156 180h-62 q-29 -80 -115 -80q-14 0 -28.5 2.5t-30.5 6.5l-119 28q-27 8 -57 9q-63 0 -97 -41t-49 -131z" />
<glyph unicode="&#xd2;" horiz-adv-x="1587" d="M88 735q0 184 48 328.5t139.5 244t222.5 151.5t295 52t295 -52t222 -151.5t139 -243.5t48 -329q0 -184 -48 -328.5t-139 -244t-222.5 -151.5t-294.5 -52q-164 0 -295 52t-222.5 151.5t-139.5 244t-48 328.5zM141 735q0 -174 44 -310t128 -229.5t206 -141.5t276 -48 q152 0 271.5 48t203.5 141.5t129 229.5t45 310q0 352 -171 541.5t-480 189.5q-152 0 -273 -49t-205 -142t-129 -229.5t-45 -310.5zM342 735q0 274 118 415.5t333 141.5t331.5 -142t116.5 -415q0 -272 -116.5 -414.5t-331.5 -142.5t-333 141.5t-118 415.5zM395 735 q0 -250 104.5 -381t293.5 -131q193 0 294 130t101 382q0 250 -103.5 381t-291.5 131q-190 0 -294 -130t-104 -382zM406 1911h350l229 -328h-194zM524 1868l285 -242h90l-170 242h-205z" />
<glyph unicode="&#xd3;" horiz-adv-x="1587" d="M88 735q0 184 48 328.5t139.5 244t222.5 151.5t295 52t295 -52t222 -151.5t139 -243.5t48 -329q0 -184 -48 -328.5t-139 -244t-222.5 -151.5t-294.5 -52q-164 0 -295 52t-222.5 151.5t-139.5 244t-48 328.5zM141 735q0 -174 44 -310t128 -229.5t206 -141.5t276 -48 q152 0 271.5 48t203.5 141.5t129 229.5t45 310q0 352 -171 541.5t-480 189.5q-152 0 -273 -49t-205 -142t-129 -229.5t-45 -310.5zM342 735q0 274 118 415.5t333 141.5t331.5 -142t116.5 -415q0 -272 -116.5 -414.5t-331.5 -142.5t-333 141.5t-118 415.5zM395 735 q0 -250 104.5 -381t293.5 -131q193 0 294 130t101 382q0 250 -103.5 381t-291.5 131q-190 0 -294 -130t-104 -382zM621 1583l229 328h350l-385 -328h-194zM707 1626h90l285 242h-205z" />
<glyph unicode="&#xd4;" horiz-adv-x="1587" d="M88 735q0 184 48 328.5t139.5 244t222.5 151.5t295 52t295 -52t222 -151.5t139 -243.5t48 -329q0 -184 -48 -328.5t-139 -244t-222.5 -151.5t-294.5 -52q-164 0 -295 52t-222.5 151.5t-139.5 244t-48 328.5zM141 735q0 -174 44 -310t128 -229.5t206 -141.5t276 -48 q152 0 271.5 48t203.5 141.5t129 229.5t45 310q0 352 -171 541.5t-480 189.5q-152 0 -273 -49t-205 -142t-129 -229.5t-45 -310.5zM342 735q0 274 118 415.5t333 141.5t331.5 -142t116.5 -415q0 -272 -116.5 -414.5t-331.5 -142.5t-333 141.5t-118 415.5zM395 735 q0 -250 104.5 -381t293.5 -131q193 0 294 130t101 382q0 250 -103.5 381t-291.5 131q-190 0 -294 -130t-104 -382zM459 1583l229 328h230l229 -328h-201l-143 129l-143 -129h-201zM543 1626h96l164 145l164 -145h96l-170 242h-180z" />
<glyph unicode="&#xd5;" horiz-adv-x="1587" d="M88 735q0 184 48 328.5t139.5 244t222.5 151.5t295 52t295 -52t222 -151.5t139 -243.5t48 -329q0 -184 -48 -328.5t-139 -244t-222.5 -151.5t-294.5 -52q-164 0 -295 52t-222.5 151.5t-139.5 244t-48 328.5zM141 735q0 -174 44 -310t128 -229.5t206 -141.5t276 -48 q152 0 271.5 48t203.5 141.5t129 229.5t45 310q0 352 -171 541.5t-480 189.5q-152 0 -273 -49t-205 -142t-129 -229.5t-45 -310.5zM342 735q0 274 118 415.5t333 141.5t331.5 -142t116.5 -415q0 -272 -116.5 -414.5t-331.5 -142.5t-333 141.5t-118 415.5zM395 735 q0 -250 104.5 -381t293.5 -131q193 0 294 130t101 382q0 250 -103.5 381t-291.5 131q-190 0 -294 -130t-104 -382zM469 1602q16 137 61.5 199.5t137.5 62.5q35 0 65 -9l123 -32q20 -6 47 -6q70 0 90 77h144q-10 -129 -61.5 -198.5t-155.5 -69.5q-23 0 -47 6l-131 35 q-10 4 -21.5 6t-28.5 2q-57 0 -82 -73h-141zM524 1645h58q10 35 42 54t70 19q33 0 60 -8l119 -31q14 -4 27.5 -6t25.5 -2q133 0 156 180h-62q-29 -80 -115 -80q-14 0 -28.5 2.5t-30.5 6.5l-119 28q-27 8 -57 9q-63 0 -97 -41t-49 -131z" />
<glyph unicode="&#xd6;" horiz-adv-x="1587" d="M88 735q0 184 48 328.5t139.5 244t222.5 151.5t295 52t295 -52t222 -151.5t139 -243.5t48 -329q0 -184 -48 -328.5t-139 -244t-222.5 -151.5t-294.5 -52q-164 0 -295 52t-222.5 151.5t-139.5 244t-48 328.5zM141 735q0 -174 44 -310t128 -229.5t206 -141.5t276 -48 q152 0 271.5 48t203.5 141.5t129 229.5t45 310q0 352 -171 541.5t-480 189.5q-152 0 -273 -49t-205 -142t-129 -229.5t-45 -310.5zM342 735q0 274 118 415.5t333 141.5t331.5 -142t116.5 -415q0 -272 -116.5 -414.5t-331.5 -142.5t-333 141.5t-118 415.5zM395 735 q0 -250 104.5 -381t293.5 -131q193 0 294 130t101 382q0 250 -103.5 381t-291.5 131q-190 0 -294 -130t-104 -382zM522 1608v235h220v-235h-220zM572 1649h120v151h-120v-151zM864 1608v235h220v-235h-220zM912 1649h122v151h-122v-151z" />
<glyph unicode="&#xd7;" horiz-adv-x="1705" d="M315 119l492 491l-492 492l45 45l492 -492l491 492l46 -45l-492 -492l492 -491l-46 -45l-491 491l-492 -491z" />
<glyph unicode="&#xd8;" horiz-adv-x="1587" d="M23 41l188 209q-123 180 -123 487q0 184 48 328.5t139.5 243t224.5 150.5t303 52q123 0 224 -30.5t202 -102.5l153 172l156 -139l-166 -186q66 -100 95.5 -220t29.5 -268q0 -186 -48 -331.5t-139 -245t-222.5 -150.5t-299.5 -51q-268 0 -436 135l-174 -190zM90 47l86 -76 l172 193q92 -84 196.5 -122t239.5 -38q156 0 278 49t207 141.5t130 222.5t45 294q0 162 -30 286.5t-107 229.5l161 180l-84 72l-151 -168q-96 84 -200.5 118.5t-239.5 34.5q-152 0 -273 -49t-205 -141t-129 -224t-45 -298q0 -168 32 -292t101 -210zM342 731q0 274 118 417.5 t333 143.5q195 0 315 -127l-696 -772q-37 72 -53.5 156t-16.5 182zM395 731q0 -139 37 -246l608 676q-43 35 -104.5 59.5t-144.5 24.5q-188 0 -292 -131t-104 -383zM471 309l698 774q39 -78 55.5 -160.5t16.5 -177.5q0 -281 -115.5 -424t-334.5 -143q-195 0 -320 131z M541 313q43 -39 104.5 -63.5t147.5 -24.5q188 0 291.5 129t103.5 377q0 164 -37 260z" />
<glyph unicode="&#xd9;" horiz-adv-x="1468" d="M143 508v965h306v-971q0 -131 74.5 -204t209.5 -73t211 74t76 203v971h303v-877q0 -115 -9 -209t-61 -180q-72 -123 -200.5 -185.5t-315.5 -62.5q-285 0 -439.5 142.5t-154.5 406.5zM195 516q0 -250 139 -380t401 -130q152 0 262.5 45t186.5 144q59 78 73.5 174t14.5 225 v829h-201v-921q0 -150 -91 -237t-247 -87q-160 0 -248 86t-88 238v921h-202v-907zM342 1911h350l229 -328h-194zM460 1868l285 -242h90l-170 242h-205z" />
<glyph unicode="&#xda;" horiz-adv-x="1468" d="M143 508v965h306v-971q0 -131 74.5 -204t209.5 -73t211 74t76 203v971h303v-877q0 -115 -9 -209t-61 -180q-72 -123 -200.5 -185.5t-315.5 -62.5q-285 0 -439.5 142.5t-154.5 406.5zM195 516q0 -250 139 -380t401 -130q152 0 262.5 45t186.5 144q59 78 73.5 174t14.5 225 v829h-201v-921q0 -150 -91 -237t-247 -87q-160 0 -248 86t-88 238v921h-202v-907zM557 1583l229 328h350l-385 -328h-194zM643 1626h90l285 242h-205z" />
<glyph unicode="&#xdb;" horiz-adv-x="1468" d="M143 508v965h306v-971q0 -131 74.5 -204t209.5 -73t211 74t76 203v971h303v-877q0 -115 -9 -209t-61 -180q-72 -123 -200.5 -185.5t-315.5 -62.5q-285 0 -439.5 142.5t-154.5 406.5zM195 516q0 -250 139 -380t401 -130q152 0 262.5 45t186.5 144q59 78 73.5 174t14.5 225 v829h-201v-921q0 -150 -91 -237t-247 -87q-160 0 -248 86t-88 238v921h-202v-907zM395 1583l229 328h230l229 -328h-201l-143 129l-143 -129h-201zM479 1626h96l164 145l164 -145h96l-170 242h-180z" />
<glyph unicode="&#xdc;" horiz-adv-x="1468" d="M143 508v965h306v-971q0 -131 74.5 -204t209.5 -73t211 74t76 203v971h303v-877q0 -115 -9 -209t-61 -180q-72 -123 -200.5 -185.5t-315.5 -62.5q-285 0 -439.5 142.5t-154.5 406.5zM195 516q0 -250 139 -380t401 -130q152 0 262.5 45t186.5 144q59 78 73.5 174t14.5 225 v829h-201v-921q0 -150 -91 -237t-247 -87q-160 0 -248 86t-88 238v921h-202v-907zM458 1608v235h220v-235h-220zM508 1649h120v151h-120v-151zM800 1608v235h220v-235h-220zM848 1649h122v151h-122v-151z" />
<glyph unicode="&#xdd;" horiz-adv-x="1351" d="M27 1473h366l266 -517q12 -23 24.5 -52.5t16.5 -69.5q4 35 14.5 65.5t24.5 58.5l244 515h342l-473 -924v-549h-305v549zM109 1425l489 -868v-510h203v506l446 872h-231l-316 -657l-338 657h-253zM494 1583l229 328h350l-385 -328h-194zM580 1626h90l285 242h-205z" />
<glyph unicode="&#xde;" horiz-adv-x="1343" d="M145 0v1473h304v-240h325q242 0 361.5 -121t119.5 -352q0 -227 -119.5 -350t-349.5 -123h-337v-287h-304zM197 47h198v285h391q205 0 311.5 109.5t106.5 318.5q0 426 -434 426h-375v239h-198v-1378zM397 502v522h338q137 0 205 -62.5t68 -197.5q0 -262 -273 -262h-338z M451 551h278q117 0 172 48t55 165q0 121 -58 167t-169 46h-278v-426z" />
<glyph unicode="&#xdf;" horiz-adv-x="1218" d="M119 0v983q0 96 9 173t50 142q117 184 414 185q223 0 344 -101.5t121 -273.5q0 -109 -35 -177.5t-113 -105.5q236 -94 236 -362q0 -113 -34 -205t-95.5 -157.5t-147.5 -101.5t-190 -36q-45 0 -139 12v234q23 -2 40 -3t27 -1q119 0 182.5 65.5t63.5 186.5q0 117 -70.5 178 t-206.5 61h-24v201h20q199 0 199 176q0 174 -190 174q-176 0 -177 -194v-1053h-284zM170 47h180v1002q0 123 59.5 184t170.5 61q123 0 183 -56t60 -165q0 -104 -56 -160.5t-163 -58.5v-111q147 -4 223 -78.5t76 -207.5q0 -141 -73.5 -221t-196.5 -80q-4 0 -14.5 1t-28.5 1 v-144q29 -4 50.5 -6t35.5 -2q94 0 171 33t132 91t86 141t31 182q0 135 -60.5 220t-195.5 150q86 49 126 112.5t40 158.5q0 162 -106.5 251t-307.5 89q-117 0 -203 -32t-145 -102q-53 -61 -63.5 -130.5t-10.5 -153.5v-969z" />
<glyph unicode="&#xe0;" horiz-adv-x="1120" d="M70 307q0 287 325 342q90 14 153.5 21.5t104.5 15.5t59.5 25.5t18.5 54.5q0 33 -6 57.5t-23.5 42t-50.5 25.5t-88 8q-94 0 -138 -30.5t-44 -104.5v-16h-272v20q0 170 117.5 264t338.5 94q215 0 332 -80.5t117 -226.5v-618q0 -59 12 -95t49 -57v-49h-303q-25 51 -24 92v17 q-129 -147 -357 -148q-147 0 -234 88t-87 258zM123 307q0 -147 76.5 -223t218.5 -76q92 0 187 48.5t173 140.5q0 -47 4 -84t19 -66h211q-29 20 -40 57t-11 97v608q0 129 -102.5 199.5t-291.5 70.5q-190 0 -296.5 -77.5t-106.5 -204.5v-6h168q20 156 233 155q117 0 168 -40 t51 -126q0 -47 -15 -74.5t-50 -45t-91.5 -26.5t-138.5 -22q-90 -12 -157.5 -31.5t-114.5 -54t-70.5 -87t-23.5 -132.5zM189 1526h350l229 -328h-194zM307 324q0 123 158 161q25 6 58.5 10.5t74.5 11.5t88 20.5t98 35.5v-110q0 -137 -81.5 -205t-213.5 -68q-88 0 -135 39 t-47 105zM307 1483l285 -242h90l-170 242h-205zM356 328q0 -47 37 -75t103 -28q49 0 92 13.5t75.5 39t52 61.5t19.5 81v80q-80 -27 -149.5 -38t-120.5 -24.5t-80 -37t-29 -72.5z" />
<glyph unicode="&#xe1;" horiz-adv-x="1120" d="M70 307q0 287 325 342q90 14 153.5 21.5t104.5 15.5t59.5 25.5t18.5 54.5q0 33 -6 57.5t-23.5 42t-50.5 25.5t-88 8q-94 0 -138 -30.5t-44 -104.5v-16h-272v20q0 170 117.5 264t338.5 94q215 0 332 -80.5t117 -226.5v-618q0 -59 12 -95t49 -57v-49h-303q-25 51 -24 92v17 q-129 -147 -357 -148q-147 0 -234 88t-87 258zM123 307q0 -147 76.5 -223t218.5 -76q92 0 187 48.5t173 140.5q0 -47 4 -84t19 -66h211q-29 20 -40 57t-11 97v608q0 129 -102.5 199.5t-291.5 70.5q-190 0 -296.5 -77.5t-106.5 -204.5v-6h168q20 156 233 155q117 0 168 -40 t51 -126q0 -47 -15 -74.5t-50 -45t-91.5 -26.5t-138.5 -22q-90 -12 -157.5 -31.5t-114.5 -54t-70.5 -87t-23.5 -132.5zM307 324q0 123 158 161q25 6 58.5 10.5t74.5 11.5t88 20.5t98 35.5v-110q0 -137 -81.5 -205t-213.5 -68q-88 0 -135 39t-47 105zM356 328q0 -47 37 -75 t103 -28q49 0 92 13.5t75.5 39t52 61.5t19.5 81v80q-80 -27 -149.5 -38t-120.5 -24.5t-80 -37t-29 -72.5zM404 1198l229 328h350l-385 -328h-194zM490 1241h90l285 242h-205z" />
<glyph unicode="&#xe2;" horiz-adv-x="1120" d="M70 307q0 287 325 342q90 14 153.5 21.5t104.5 15.5t59.5 25.5t18.5 54.5q0 33 -6 57.5t-23.5 42t-50.5 25.5t-88 8q-94 0 -138 -30.5t-44 -104.5v-16h-272v20q0 170 117.5 264t338.5 94q215 0 332 -80.5t117 -226.5v-618q0 -59 12 -95t49 -57v-49h-303q-25 51 -24 92v17 q-129 -147 -357 -148q-147 0 -234 88t-87 258zM123 307q0 -147 76.5 -223t218.5 -76q92 0 187 48.5t173 140.5q0 -47 4 -84t19 -66h211q-29 20 -40 57t-11 97v608q0 129 -102.5 199.5t-291.5 70.5q-190 0 -296.5 -77.5t-106.5 -204.5v-6h168q20 156 233 155q117 0 168 -40 t51 -126q0 -47 -15 -74.5t-50 -45t-91.5 -26.5t-138.5 -22q-90 -12 -157.5 -31.5t-114.5 -54t-70.5 -87t-23.5 -132.5zM242 1198l229 328h230l229 -328h-201l-143 129l-143 -129h-201zM307 324q0 123 158 161q25 6 58.5 10.5t74.5 11.5t88 20.5t98 35.5v-110 q0 -137 -81.5 -205t-213.5 -68q-88 0 -135 39t-47 105zM326 1241h96l164 145l164 -145h96l-170 242h-180zM356 328q0 -47 37 -75t103 -28q49 0 92 13.5t75.5 39t52 61.5t19.5 81v80q-80 -27 -149.5 -38t-120.5 -24.5t-80 -37t-29 -72.5z" />
<glyph unicode="&#xe3;" horiz-adv-x="1120" d="M70 307q0 287 325 342q90 14 153.5 21.5t104.5 15.5t59.5 25.5t18.5 54.5q0 33 -6 57.5t-23.5 42t-50.5 25.5t-88 8q-94 0 -138 -30.5t-44 -104.5v-16h-272v20q0 170 117.5 264t338.5 94q215 0 332 -80.5t117 -226.5v-618q0 -59 12 -95t49 -57v-49h-303q-25 51 -24 92v17 q-129 -147 -357 -148q-147 0 -234 88t-87 258zM123 307q0 -147 76.5 -223t218.5 -76q92 0 187 48.5t173 140.5q0 -47 4 -84t19 -66h211q-29 20 -40 57t-11 97v608q0 129 -102.5 199.5t-291.5 70.5q-190 0 -296.5 -77.5t-106.5 -204.5v-6h168q20 156 233 155q117 0 168 -40 t51 -126q0 -47 -15 -74.5t-50 -45t-91.5 -26.5t-138.5 -22q-90 -12 -157.5 -31.5t-114.5 -54t-70.5 -87t-23.5 -132.5zM252 1217q16 137 61.5 199.5t137.5 62.5q35 0 65 -9l123 -32q20 -6 47 -6q70 0 90 77h144q-10 -129 -61.5 -198.5t-155.5 -69.5q-23 0 -47 6l-131 35 q-10 4 -21.5 6t-28.5 2q-57 0 -82 -73h-141zM307 324q0 123 158 161q25 6 58.5 10.5t74.5 11.5t88 20.5t98 35.5v-110q0 -137 -81.5 -205t-213.5 -68q-88 0 -135 39t-47 105zM307 1260h58q10 35 42 54t70 19q33 0 60 -8l119 -31q14 -4 27.5 -6t25.5 -2q133 0 156 180h-62 q-29 -80 -115 -80q-14 0 -28.5 2.5t-30.5 6.5l-119 28q-27 8 -57 9q-63 0 -97 -41t-49 -131zM356 328q0 -47 37 -75t103 -28q49 0 92 13.5t75.5 39t52 61.5t19.5 81v80q-80 -27 -149.5 -38t-120.5 -24.5t-80 -37t-29 -72.5z" />
<glyph unicode="&#xe4;" horiz-adv-x="1120" d="M70 307q0 287 325 342q90 14 153.5 21.5t104.5 15.5t59.5 25.5t18.5 54.5q0 33 -6 57.5t-23.5 42t-50.5 25.5t-88 8q-94 0 -138 -30.5t-44 -104.5v-16h-272v20q0 170 117.5 264t338.5 94q215 0 332 -80.5t117 -226.5v-618q0 -59 12 -95t49 -57v-49h-303q-25 51 -24 92v17 q-129 -147 -357 -148q-147 0 -234 88t-87 258zM123 307q0 -147 76.5 -223t218.5 -76q92 0 187 48.5t173 140.5q0 -47 4 -84t19 -66h211q-29 20 -40 57t-11 97v608q0 129 -102.5 199.5t-291.5 70.5q-190 0 -296.5 -77.5t-106.5 -204.5v-6h168q20 156 233 155q117 0 168 -40 t51 -126q0 -47 -15 -74.5t-50 -45t-91.5 -26.5t-138.5 -22q-90 -12 -157.5 -31.5t-114.5 -54t-70.5 -87t-23.5 -132.5zM305 1223v235h220v-235h-220zM307 324q0 123 158 161q25 6 58.5 10.5t74.5 11.5t88 20.5t98 35.5v-110q0 -137 -81.5 -205t-213.5 -68q-88 0 -135 39 t-47 105zM355 1264h120v151h-120v-151zM356 328q0 -47 37 -75t103 -28q49 0 92 13.5t75.5 39t52 61.5t19.5 81v80q-80 -27 -149.5 -38t-120.5 -24.5t-80 -37t-29 -72.5zM647 1223v235h220v-235h-220zM695 1264h122v151h-122v-151z" />
<glyph unicode="&#xe5;" horiz-adv-x="1120" d="M70 307q0 287 325 342q90 14 153.5 21.5t104.5 15.5t59.5 25.5t18.5 54.5q0 33 -6 57.5t-23.5 42t-50.5 25.5t-88 8q-94 0 -138 -30.5t-44 -104.5v-16h-272v20q0 170 117.5 264t338.5 94q215 0 332 -80.5t117 -226.5v-618q0 -59 12 -95t49 -57v-49h-303q-25 51 -24 92v17 q-129 -147 -357 -148q-147 0 -234 88t-87 258zM123 307q0 -147 76.5 -223t218.5 -76q92 0 187 48.5t173 140.5q0 -47 4 -84t19 -66h211q-29 20 -40 57t-11 97v608q0 129 -102.5 199.5t-291.5 70.5q-190 0 -296.5 -77.5t-106.5 -204.5v-6h168q20 156 233 155q117 0 168 -40 t51 -126q0 -47 -15 -74.5t-50 -45t-91.5 -26.5t-138.5 -22q-90 -12 -157.5 -31.5t-114.5 -54t-70.5 -87t-23.5 -132.5zM307 324q0 123 158 161q25 6 58.5 10.5t74.5 11.5t88 20.5t98 35.5v-110q0 -137 -81.5 -205t-213.5 -68q-88 0 -135 39t-47 105zM330 1401q0 45 16 84 t46 67.5t69 46t84 17.5t84 -17.5t68.5 -46t47 -67.5t17.5 -84t-17.5 -85t-47 -68.5t-69.5 -46t-83 -17.5q-45 0 -84 17.5t-69 47t-46 68.5t-16 84zM356 328q0 -47 37 -75t103 -28q49 0 92 13.5t75.5 39t52 61.5t19.5 81v80q-80 -27 -149.5 -38t-120.5 -24.5t-80 -37 t-29 -72.5zM375 1399q0 -72 49 -121t121 -49q35 0 65.5 13t54 35.5t37 53.5t13.5 68q0 72 -49.5 121t-120.5 49q-72 0 -121 -49t-49 -121zM459 1397q0 37 24.5 62.5t61.5 25.5t61.5 -24.5t24.5 -63.5q0 -35 -24.5 -59.5t-61.5 -24.5t-61.5 24.5t-24.5 59.5zM498 1399 q0 -20 12 -33.5t35 -13.5q20 0 33.5 13t13.5 34q0 23 -13.5 35t-33.5 12q-47 0 -47 -47z" />
<glyph unicode="&#xe6;" horiz-adv-x="1810" d="M70 307q0 287 325 342q90 14 153.5 21.5t104.5 15.5t59.5 25.5t18.5 54.5q0 33 -6 58.5t-24.5 42t-51.5 24.5t-86 8q-182 0 -182 -133v-18h-272v20q0 170 116.5 264t337.5 94q252 0 359 -112q113 113 311 112q236 0 373 -149.5t137 -429.5q0 -23 -1 -45.5t-3 -46.5h-725 q18 -246 225 -246q170 0 199 121h288q-18 -84 -63 -151.5t-109.5 -115t-147.5 -74t-181 -26.5q-268 0 -383 180q-61 -86 -169 -134t-247 -48q-356 0 -356 346zM123 307q0 -147 76.5 -223t218.5 -76q141 0 245.5 50.5t182.5 156.5q59 -102 154.5 -154.5t222.5 -52.5 q154 0 268.5 73t167.5 202h-189q-47 -121 -233 -121q-135 0 -205.5 85t-70.5 249v6h725q2 14 2 27.5v25.5q0 125 -33 223.5t-92.5 165t-143.5 101t-184 34.5q-98 0 -176 -28.5t-144 -94.5q-61 66 -146 94.5t-202 28.5q-188 0 -292.5 -76.5t-110.5 -211.5h168q20 156 233 155 q66 0 109 -12t67.5 -36t33.5 -58.5t9 -81.5q0 -41 -21.5 -65.5t-64.5 -39t-106.5 -23.5t-147.5 -22q-164 -23 -242.5 -92.5t-78.5 -208.5zM307 324q0 123 158 161q25 6 58.5 10.5t74.5 11.5t88 20.5t98 35.5v-110q0 -137 -81.5 -205t-213.5 -68q-88 0 -135 39t-47 105z M356 328q0 -47 37 -75t103 -28q49 0 92 13.5t75.5 39t52 61.5t19.5 81v80q-80 -27 -149.5 -38t-120.5 -24.5t-80 -37t-29 -72.5zM965 612v25q0 135 71.5 213t188.5 78q131 0 200.5 -78t69.5 -225v-13h-530zM1018 657h424q-4 111 -58.5 168.5t-152.5 57.5t-155.5 -60.5 t-57.5 -165.5z" />
<glyph unicode="&#xe7;" horiz-adv-x="1120" d="M61 543q0 279 137.5 431t379.5 152q215 0 342 -113.5t139 -310.5h-287q-25 176 -199 177q-209 0 -208 -338q0 -158 54 -241t156 -83q88 0 135.5 45t63.5 148h289q-6 -92 -40 -170t-90 -135.5t-135 -93.5t-173 -46v-74h18q104 0 160.5 -47t56.5 -133q0 -193 -276 -192 q-47 0 -116 9t-161 32v141q63 -23 126 -33t128 -10q49 0 72.5 12.5t23.5 42.5q0 31 -28.5 41t-89.5 10q-12 0 -27.5 -1t-32.5 -1v207q-193 25 -305.5 175.5t-112.5 398.5zM113 543q0 -242 110.5 -381t302.5 -152v-207h23q150 0 149 -90q0 -96 -137 -96q-96 0 -207 29v-52 q119 -33 232 -32q115 0 171 34.5t56 112.5q0 143 -199 144h-32v155q86 2 158.5 28.5t127 73t90 111t48.5 141.5h-191q-20 -94 -82.5 -143t-157.5 -49q-129 0 -196.5 96t-67.5 275q0 193 67.5 289t196.5 96q96 0 157 -45t81 -131h191q-27 152 -138.5 240.5t-287.5 88.5 q-217 0 -341 -139t-124 -397z" />
<glyph unicode="&#xe8;" horiz-adv-x="1167" d="M68 551q0 133 35.5 239.5t101 181.5t161 114.5t212.5 39.5q248 0 384 -148.5t136 -430.5q0 -23 -1 -46.5t-3 -45.5h-723q8 -246 231 -246q166 0 191 121h288q-14 -80 -56 -147.5t-108.5 -116t-151.5 -76t-185 -27.5q-115 0 -209.5 40t-162 115t-104 184.5t-36.5 248.5z M123 551q0 -129 32.5 -229.5t92 -170t144.5 -106.5t188 -37q162 0 278.5 76t157.5 199h-193q-10 -49 -69.5 -85t-151.5 -36q-287 0 -287 334v6h727v43q0 262 -121.5 398t-342.5 136q-104 0 -188.5 -35.5t-144 -103.5t-91 -166t-31.5 -223zM205 1526h350l229 -328h-194z M319 612v25q0 135 73 213t190 78q131 0 200.5 -78t69.5 -225v-13h-533zM323 1483l285 -242h90l-170 242h-205zM373 657h426q-4 111 -58.5 168.5t-152.5 57.5t-156.5 -60.5t-58.5 -165.5z" />
<glyph unicode="&#xe9;" horiz-adv-x="1167" d="M68 551q0 133 35.5 239.5t101 181.5t161 114.5t212.5 39.5q248 0 384 -148.5t136 -430.5q0 -23 -1 -46.5t-3 -45.5h-723q8 -246 231 -246q166 0 191 121h288q-14 -80 -56 -147.5t-108.5 -116t-151.5 -76t-185 -27.5q-115 0 -209.5 40t-162 115t-104 184.5t-36.5 248.5z M123 551q0 -129 32.5 -229.5t92 -170t144.5 -106.5t188 -37q162 0 278.5 76t157.5 199h-193q-10 -49 -69.5 -85t-151.5 -36q-287 0 -287 334v6h727v43q0 262 -121.5 398t-342.5 136q-104 0 -188.5 -35.5t-144 -103.5t-91 -166t-31.5 -223zM319 612v25q0 135 73 213t190 78 q131 0 200.5 -78t69.5 -225v-13h-533zM373 657h426q-4 111 -58.5 168.5t-152.5 57.5t-156.5 -60.5t-58.5 -165.5zM420 1198l229 328h350l-385 -328h-194zM506 1241h90l285 242h-205z" />
<glyph unicode="&#xea;" horiz-adv-x="1167" d="M68 551q0 133 35.5 239.5t101 181.5t161 114.5t212.5 39.5q248 0 384 -148.5t136 -430.5q0 -23 -1 -46.5t-3 -45.5h-723q8 -246 231 -246q166 0 191 121h288q-14 -80 -56 -147.5t-108.5 -116t-151.5 -76t-185 -27.5q-115 0 -209.5 40t-162 115t-104 184.5t-36.5 248.5z M123 551q0 -129 32.5 -229.5t92 -170t144.5 -106.5t188 -37q162 0 278.5 76t157.5 199h-193q-10 -49 -69.5 -85t-151.5 -36q-287 0 -287 334v6h727v43q0 262 -121.5 398t-342.5 136q-104 0 -188.5 -35.5t-144 -103.5t-91 -166t-31.5 -223zM258 1198l229 328h230l229 -328 h-201l-143 129l-143 -129h-201zM319 612v25q0 135 73 213t190 78q131 0 200.5 -78t69.5 -225v-13h-533zM342 1241h96l164 145l164 -145h96l-170 242h-180zM373 657h426q-4 111 -58.5 168.5t-152.5 57.5t-156.5 -60.5t-58.5 -165.5z" />
<glyph unicode="&#xeb;" horiz-adv-x="1167" d="M68 551q0 133 35.5 239.5t101 181.5t161 114.5t212.5 39.5q248 0 384 -148.5t136 -430.5q0 -23 -1 -46.5t-3 -45.5h-723q8 -246 231 -246q166 0 191 121h288q-14 -80 -56 -147.5t-108.5 -116t-151.5 -76t-185 -27.5q-115 0 -209.5 40t-162 115t-104 184.5t-36.5 248.5z M123 551q0 -129 32.5 -229.5t92 -170t144.5 -106.5t188 -37q162 0 278.5 76t157.5 199h-193q-10 -49 -69.5 -85t-151.5 -36q-287 0 -287 334v6h727v43q0 262 -121.5 398t-342.5 136q-104 0 -188.5 -35.5t-144 -103.5t-91 -166t-31.5 -223zM319 612v25q0 135 73 213t190 78 q131 0 200.5 -78t69.5 -225v-13h-533zM321 1223v235h220v-235h-220zM371 1264h120v151h-120v-151zM373 657h426q-4 111 -58.5 168.5t-152.5 57.5t-156.5 -60.5t-58.5 -165.5zM663 1223v235h220v-235h-220zM711 1264h122v151h-122v-151z" />
<glyph unicode="&#xec;" horiz-adv-x="557" d="M-116 1526h350l229 -328h-194zM2 1483l285 -242h90l-170 242h-205zM133 0v1087h291v-1087h-291zM186 45h187v997h-187v-997z" />
<glyph unicode="&#xed;" horiz-adv-x="557" d="M99 1198l229 328h350l-385 -328h-194zM133 0v1087h291v-1087h-291zM185 1241h90l285 242h-205zM186 45h187v997h-187v-997z" />
<glyph unicode="&#xee;" horiz-adv-x="557" d="M-63 1198l229 328h230l229 -328h-201l-143 129l-143 -129h-201zM21 1241h96l164 145l164 -145h96l-170 242h-180zM133 0v1087h291v-1087h-291zM186 45h187v997h-187v-997z" />
<glyph unicode="&#xef;" horiz-adv-x="557" d="M0 1223v235h220v-235h-220zM50 1264h120v151h-120v-151zM133 0v1087h291v-1087h-291zM186 45h187v997h-187v-997zM342 1223v235h220v-235h-220zM390 1264h122v151h-122v-151z" />
<glyph unicode="&#xf0;" horiz-adv-x="1245" d="M72 510q0 121 34.5 219t97 168t147.5 107.5t188 37.5q41 0 82 -6t86 -16q-29 37 -73 77t-106 81l-295 -142l-73 148l207 96q-29 16 -70 36.5t-96 47.5l80 145q78 -25 158.5 -58.5t166.5 -74.5l297 142l74 -146l-213 -100q209 -154 309.5 -335t100.5 -411 q0 -272 -144.5 -417.5t-406.5 -145.5q-129 0 -231.5 38t-173.5 108.5t-108.5 172t-37.5 228.5zM123 510q0 -238 132 -371t368 -133t367.5 133t131.5 369q0 125 -24.5 229.5t-78.5 196.5t-137 177t-200 169l240 115l-35 69l-279 -137q-74 35 -150.5 69t-162.5 62l-39 -74 q43 -16 93 -42.5t110 -67.5l-242 -113l31 -67l282 135q172 -119 232 -223l-29 -33q-53 14 -98 22.5t-80 8.5q-98 0 -177 -34t-136.5 -97.5t-88 -155.5t-30.5 -207zM317 508q0 174 80 268t226 94q145 0 225 -94t80 -268q0 -172 -79 -266.5t-226 -94.5t-226.5 93.5 t-79.5 267.5zM369 508q0 -156 65.5 -235.5t188.5 -79.5t188.5 79.5t65.5 235.5q0 154 -67 235.5t-187 81.5q-123 0 -188.5 -80.5t-65.5 -236.5z" />
<glyph unicode="&#xf1;" horiz-adv-x="1222" d="M127 0v1087h276v-69q0 -29 -6 -60q57 80 135 119t189 39q182 0 280.5 -89t98.5 -249v-778h-291v651q0 111 -34 167t-130 56q-227 0 -227 -344v-530h-291zM178 47h189v459q0 416 280 416q121 0 167 -69t46 -204v-602h189v731q0 139 -87.5 215t-240.5 76q-117 0 -202 -50 t-163 -161v184h-178v-995zM289 1217q16 137 61.5 199.5t137.5 62.5q35 0 65 -9l123 -32q20 -6 47 -6q70 0 90 77h144q-10 -129 -61.5 -198.5t-155.5 -69.5q-23 0 -47 6l-131 35q-10 4 -21.5 6t-28.5 2q-57 0 -82 -73h-141zM344 1260h58q10 35 42 54t70 19q33 0 60 -8 l119 -31q14 -4 27.5 -6t25.5 -2q133 0 156 180h-62q-29 -80 -115 -80q-14 0 -28.5 2.5t-30.5 6.5l-119 28q-27 8 -57 9q-63 0 -97 -41t-49 -131z" />
<glyph unicode="&#xf2;" horiz-adv-x="1245" d="M72 545q0 135 37.5 242.5t108.5 183.5t173.5 115.5t231.5 39.5t231 -39.5t173 -115.5t109 -183.5t38 -242.5t-38 -242.5t-109 -183.5t-173 -116t-231 -40t-231.5 40t-173.5 116t-108.5 183.5t-37.5 242.5zM123 545q0 -254 133 -395.5t367 -141.5q236 0 366.5 139.5 t130.5 397.5t-131 396t-366 138q-236 0 -368 -139t-132 -395zM238 1526h350l229 -328h-194zM317 543q0 186 80 285.5t226 99.5q145 0 225 -100.5t80 -284.5t-79 -283.5t-226 -99.5t-226.5 98.5t-79.5 284.5zM356 1483l285 -242h90l-170 242h-205zM369 545q0 -166 65.5 -252 t188.5 -86t188.5 86t65.5 252q0 164 -67 250t-187 86q-123 0 -188.5 -85t-65.5 -251z" />
<glyph unicode="&#xf3;" horiz-adv-x="1245" d="M72 545q0 135 37.5 242.5t108.5 183.5t173.5 115.5t231.5 39.5t231 -39.5t173 -115.5t109 -183.5t38 -242.5t-38 -242.5t-109 -183.5t-173 -116t-231 -40t-231.5 40t-173.5 116t-108.5 183.5t-37.5 242.5zM123 545q0 -254 133 -395.5t367 -141.5q236 0 366.5 139.5 t130.5 397.5t-131 396t-366 138q-236 0 -368 -139t-132 -395zM317 543q0 186 80 285.5t226 99.5q145 0 225 -100.5t80 -284.5t-79 -283.5t-226 -99.5t-226.5 98.5t-79.5 284.5zM369 545q0 -166 65.5 -252t188.5 -86t188.5 86t65.5 252q0 164 -67 250t-187 86 q-123 0 -188.5 -85t-65.5 -251zM453 1198l229 328h350l-385 -328h-194zM539 1241h90l285 242h-205z" />
<glyph unicode="&#xf4;" horiz-adv-x="1245" d="M72 545q0 135 37.5 242.5t108.5 183.5t173.5 115.5t231.5 39.5t231 -39.5t173 -115.5t109 -183.5t38 -242.5t-38 -242.5t-109 -183.5t-173 -116t-231 -40t-231.5 40t-173.5 116t-108.5 183.5t-37.5 242.5zM123 545q0 -254 133 -395.5t367 -141.5q236 0 366.5 139.5 t130.5 397.5t-131 396t-366 138q-236 0 -368 -139t-132 -395zM291 1198l229 328h230l229 -328h-201l-143 129l-143 -129h-201zM317 543q0 186 80 285.5t226 99.5q145 0 225 -100.5t80 -284.5t-79 -283.5t-226 -99.5t-226.5 98.5t-79.5 284.5zM369 545q0 -166 65.5 -252 t188.5 -86t188.5 86t65.5 252q0 164 -67 250t-187 86q-123 0 -188.5 -85t-65.5 -251zM375 1241h96l164 145l164 -145h96l-170 242h-180z" />
<glyph unicode="&#xf5;" horiz-adv-x="1245" d="M72 545q0 135 37.5 242.5t108.5 183.5t173.5 115.5t231.5 39.5t231 -39.5t173 -115.5t109 -183.5t38 -242.5t-38 -242.5t-109 -183.5t-173 -116t-231 -40t-231.5 40t-173.5 116t-108.5 183.5t-37.5 242.5zM123 545q0 -254 133 -395.5t367 -141.5q236 0 366.5 139.5 t130.5 397.5t-131 396t-366 138q-236 0 -368 -139t-132 -395zM301 1217q16 137 61.5 199.5t137.5 62.5q35 0 65 -9l123 -32q20 -6 47 -6q70 0 90 77h144q-10 -129 -61.5 -198.5t-155.5 -69.5q-23 0 -47 6l-131 35q-10 4 -21.5 6t-28.5 2q-57 0 -82 -73h-141zM317 543 q0 186 80 285.5t226 99.5q145 0 225 -100.5t80 -284.5t-79 -283.5t-226 -99.5t-226.5 98.5t-79.5 284.5zM356 1260h58q10 35 42 54t70 19q33 0 60 -8l119 -31q14 -4 27.5 -6t25.5 -2q133 0 156 180h-62q-29 -80 -115 -80q-14 0 -28.5 2.5t-30.5 6.5l-119 28q-27 8 -57 9 q-63 0 -97 -41t-49 -131zM369 545q0 -166 65.5 -252t188.5 -86t188.5 86t65.5 252q0 164 -67 250t-187 86q-123 0 -188.5 -85t-65.5 -251z" />
<glyph unicode="&#xf6;" horiz-adv-x="1245" d="M72 545q0 135 37.5 242.5t108.5 183.5t173.5 115.5t231.5 39.5t231 -39.5t173 -115.5t109 -183.5t38 -242.5t-38 -242.5t-109 -183.5t-173 -116t-231 -40t-231.5 40t-173.5 116t-108.5 183.5t-37.5 242.5zM123 545q0 -254 133 -395.5t367 -141.5q236 0 366.5 139.5 t130.5 397.5t-131 396t-366 138q-236 0 -368 -139t-132 -395zM317 543q0 186 80 285.5t226 99.5q145 0 225 -100.5t80 -284.5t-79 -283.5t-226 -99.5t-226.5 98.5t-79.5 284.5zM354 1223v235h220v-235h-220zM369 545q0 -166 65.5 -252t188.5 -86t188.5 86t65.5 252 q0 164 -67 250t-187 86q-123 0 -188.5 -85t-65.5 -251zM404 1264h120v151h-120v-151zM696 1223v235h220v-235h-220zM744 1264h122v151h-122v-151z" />
<glyph unicode="&#xf7;" horiz-adv-x="1705" d="M254 580v61h1198v-61h-1198zM762 270q0 39 27.5 65.5t64.5 26.5q39 0 64.5 -25.5t25.5 -64.5q0 -37 -25.5 -64.5t-64.5 -27.5t-65.5 26.5t-26.5 63.5zM762 948q0 37 27.5 64.5t64.5 27.5t63.5 -26.5t26.5 -65.5t-25.5 -64.5t-64.5 -25.5t-65.5 25.5t-26.5 64.5z" />
<glyph unicode="&#xf8;" horiz-adv-x="1245" d="M6 37l156 162q-90 131 -90 350q0 133 39 240.5t109.5 182.5t172 115.5t228.5 40.5q205 0 333 -98l142 148l139 -134l-148 -153q37 -57 63 -141t26 -205q0 -133 -38 -240.5t-109 -183.5t-171 -117t-223 -41q-104 0 -188.5 19.5t-155.5 72.5l-144 -151zM72 37l71 -66 l146 152q68 -59 146.5 -86t180.5 -27q240 0 372 141.5t132 393.5q0 113 -25.5 197.5t-72.5 150.5l145 151l-69 68l-142 -147q-55 51 -136 83.5t-210 32.5q-106 0 -195 -36.5t-153.5 -106.5t-100.5 -170t-36 -225q0 -217 98 -346zM307 545q0 190 82 289.5t234 99.5 q135 0 225 -92l-500 -523q-25 53 -33 109.5t-8 116.5zM358 539q0 -66 15 -125l405 424q-39 29 -73.5 41t-75.5 12q-133 0 -202 -89t-69 -263zM399 244l496 522q23 -55 32 -106.5t9 -104.5q0 -201 -81 -301t-237 -100q-72 0 -125 21.5t-94 68.5zM467 248q37 -29 71.5 -40 t75.5 -11q270 0 271 364q0 55 -13 111z" />
<glyph unicode="&#xf9;" horiz-adv-x="1222" d="M123 301v786h291v-659q0 -111 33.5 -167t130.5 -56q229 0 229 344v538h289v-1087h-277v61q0 29 6 60q-57 -80 -135 -119t-188 -39q-182 0 -280.5 89t-98.5 249zM174 301q0 -137 87 -214t241 -77q121 0 207 54.5t157 171.5v-189h178v995h-186v-469q0 -416 -283 -415 q-121 0 -167 67.5t-46 202.5v614h-188v-741zM217 1526h350l229 -328h-194zM335 1483l285 -242h90l-170 242h-205z" />
<glyph unicode="&#xfa;" horiz-adv-x="1222" d="M123 301v786h291v-659q0 -111 33.5 -167t130.5 -56q229 0 229 344v538h289v-1087h-277v61q0 29 6 60q-57 -80 -135 -119t-188 -39q-182 0 -280.5 89t-98.5 249zM174 301q0 -137 87 -214t241 -77q121 0 207 54.5t157 171.5v-189h178v995h-186v-469q0 -416 -283 -415 q-121 0 -167 67.5t-46 202.5v614h-188v-741zM432 1198l229 328h350l-385 -328h-194zM518 1241h90l285 242h-205z" />
<glyph unicode="&#xfb;" horiz-adv-x="1222" d="M123 301v786h291v-659q0 -111 33.5 -167t130.5 -56q229 0 229 344v538h289v-1087h-277v61q0 29 6 60q-57 -80 -135 -119t-188 -39q-182 0 -280.5 89t-98.5 249zM174 301q0 -137 87 -214t241 -77q121 0 207 54.5t157 171.5v-189h178v995h-186v-469q0 -416 -283 -415 q-121 0 -167 67.5t-46 202.5v614h-188v-741zM270 1198l229 328h230l229 -328h-201l-143 129l-143 -129h-201zM354 1241h96l164 145l164 -145h96l-170 242h-180z" />
<glyph unicode="&#xfc;" horiz-adv-x="1222" d="M123 301v786h291v-659q0 -111 33.5 -167t130.5 -56q229 0 229 344v538h289v-1087h-277v61q0 29 6 60q-57 -80 -135 -119t-188 -39q-182 0 -280.5 89t-98.5 249zM174 301q0 -137 87 -214t241 -77q121 0 207 54.5t157 171.5v-189h178v995h-186v-469q0 -416 -283 -415 q-121 0 -167 67.5t-46 202.5v614h-188v-741zM333 1223v235h220v-235h-220zM383 1264h120v151h-120v-151zM675 1223v235h220v-235h-220zM723 1264h122v151h-122v-151z" />
<glyph unicode="&#xfd;" horiz-adv-x="1120" d="M20 1087h320l203 -618q8 -23 15 -53.5t11 -69.5q12 72 29 125l195 616h305l-445 -1282q-25 -68 -51.5 -114.5t-66 -77.5t-96 -44t-136.5 -13q-25 0 -55.5 2t-67.5 6v235h103q72 0 103.5 27t31.5 98q0 20 -4 47t-15 56zM88 1042l358 -1013q18 -55 19 -105q0 -84 -43 -128 t-129 -44h-62v-145q49 -6 78 -6q66 0 113 11t80 36.5t56.5 65.5t43.5 98l428 1230h-201l-260 -817l-266 817h-215zM379 1198l229 328h350l-385 -328h-194zM465 1241h90l285 242h-205z" />
<glyph unicode="&#xfe;" horiz-adv-x="1243" d="M125 -436v1909h285v-431q0 -20 -9 -51q53 72 128 103.5t186 31.5q100 0 185 -39.5t146.5 -115.5t96.5 -185.5t35 -248.5q0 -135 -34 -242t-95.5 -180.5t-148.5 -112.5t-195 -39q-100 0 -176.5 32.5t-135.5 104.5q16 -72 17 -80v-456h-285zM176 -389h182v575 q82 -92 165 -135t186 -43q92 0 168.5 36t131 102.5t85 161.5t30.5 212q0 272 -114.5 415.5t-313.5 143.5q-109 0 -187.5 -45t-150.5 -143v534h-182v-1814zM358 547q0 180 80 277.5t217 97.5q129 0 205 -101.5t76 -283.5q0 -168 -78 -265.5t-209 -97.5q-137 0 -214 94.5 t-77 278.5zM410 547q0 -164 61 -246t178 -82q106 0 170 86t64 234q0 160 -63 247.5t-169 87.5q-111 0 -176 -83.5t-65 -243.5z" />
<glyph unicode="&#xff;" horiz-adv-x="1120" d="M20 1087h320l203 -618q8 -23 15 -53.5t11 -69.5q12 72 29 125l195 616h305l-445 -1282q-25 -68 -51.5 -114.5t-66 -77.5t-96 -44t-136.5 -13q-25 0 -55.5 2t-67.5 6v235h103q72 0 103.5 27t31.5 98q0 20 -4 47t-15 56zM88 1042l358 -1013q18 -55 19 -105q0 -84 -43 -128 t-129 -44h-62v-145q49 -6 78 -6q66 0 113 11t80 36.5t56.5 65.5t43.5 98l428 1230h-201l-260 -817l-266 817h-215zM280 1223v235h220v-235h-220zM330 1264h120v151h-120v-151zM622 1223v235h220v-235h-220zM670 1264h122v151h-122v-151z" />
<glyph unicode="&#x152;" horiz-adv-x="2324" d="M88 735q0 178 48 321.5t134 245t206 156.5t263 55q111 0 205 -34.5t186 -108.5v103h1063v-256h-770v-314h705v-252h-705v-379h807v-272h-1100v102q-92 -74 -186 -108.5t-207 -34.5q-141 0 -261 54.5t-206 155.5t-134 244.5t-48 321.5zM141 735q0 -166 44 -301t124 -230 t189.5 -146.5t240.5 -51.5q121 0 225.5 48t217.5 145v-152h995v178h-807v471h703v160h-703v408h768v161h-956v-147q-115 94 -218.5 141t-222.5 47q-133 0 -242.5 -52t-189.5 -147.5t-124 -230.5t-44 -301zM346 735q0 283 116 426.5t345 143.5q111 0 199 -38t176 -124v-819 q-86 -82 -177.5 -120t-201.5 -38q-223 0 -340 144.5t-117 424.5zM397 735q0 -260 102.5 -391t307.5 -131q96 0 173 31.5t150 101.5v778q-74 72 -150.5 104t-172.5 32q-410 0 -410 -525z" />
<glyph unicode="&#x153;" horiz-adv-x="1941" d="M72 545q0 135 37.5 243.5t108.5 183.5t171 114.5t223 39.5q129 0 224.5 -36.5t169.5 -122.5q111 160 372 159q111 0 202 -37.5t157.5 -111.5t102.5 -181.5t36 -244.5q0 -23 -1 -46.5t-3 -47.5h-725q6 -119 63.5 -182.5t161.5 -63.5q86 0 132 27.5t65 91.5h284 q-16 -80 -58 -147.5t-106.5 -117t-149.5 -76t-183 -26.5q-230 0 -361 156q-143 -156 -391 -156q-121 0 -218 40t-168 116t-108.5 183.5t-37.5 242.5zM125 545q0 -125 34 -224.5t98.5 -169t156.5 -106.5t209 -37t209 43t172 135q68 -92 150.5 -135t199.5 -43q158 0 273.5 73 t164.5 202h-197q-16 -53 -76.5 -87t-150.5 -34q-135 0 -205.5 85t-70.5 249v6h725q0 12 1 23.5t1 21.5q0 127 -32 226t-91.5 167t-143.5 103.5t-188 35.5q-121 0 -210 -47t-150 -133q-76 92 -168.5 136t-212.5 44q-117 0 -209 -36.5t-156.5 -106.5t-98.5 -168t-34 -223z M313 545q0 186 81 284.5t229 98.5q147 0 227 -98.5t80 -284.5t-80 -285.5t-227 -99.5t-228.5 99.5t-81.5 285.5zM367 545q0 -164 67.5 -251t188.5 -87t187.5 87t66.5 251t-67 250t-187 86q-121 0 -188.5 -86t-67.5 -250zM1096 612v25q0 135 72.5 213t189.5 78 q131 0 199.5 -78t68.5 -225v-13h-530zM1149 657h424q-4 111 -57.5 168.5t-151.5 57.5t-156.5 -60.5t-58.5 -165.5z" />
<glyph unicode="&#x178;" horiz-adv-x="1351" d="M27 1473h366l266 -517q12 -23 24.5 -52.5t16.5 -69.5q4 35 14.5 65.5t24.5 58.5l244 515h342l-473 -924v-549h-305v549zM109 1425l489 -868v-510h203v506l446 872h-231l-316 -657l-338 657h-253zM395 1608v235h220v-235h-220zM445 1649h120v151h-120v-151zM737 1608v235 h220v-235h-220zM785 1649h122v151h-122v-151z" />
<glyph unicode="&#x2c6;" horiz-adv-x="1024" d="M168 1198l229 328h230l229 -328h-201l-143 129l-143 -129h-201zM252 1241h96l164 145l164 -145h96l-170 242h-180z" />
<glyph unicode="&#x2dc;" horiz-adv-x="1024" d="M178 1217q16 137 61.5 199.5t137.5 62.5q35 0 65 -9l123 -32q20 -6 47 -6q70 0 90 77h144q-10 -129 -61.5 -198.5t-155.5 -69.5q-23 0 -47 6l-131 35q-10 4 -21.5 6t-28.5 2q-57 0 -82 -73h-141zM233 1260h58q10 35 42 54t70 19q33 0 60 -8l119 -31q14 -4 27.5 -6 t25.5 -2q133 0 156 180h-62q-29 -80 -115 -80q-14 0 -28.5 2.5t-30.5 6.5l-119 28q-27 8 -57 9q-63 0 -97 -41t-49 -131z" />
<glyph unicode="&#x2000;" horiz-adv-x="955" />
<glyph unicode="&#x2001;" horiz-adv-x="1911" />
<glyph unicode="&#x2002;" horiz-adv-x="955" />
<glyph unicode="&#x2003;" horiz-adv-x="1911" />
<glyph unicode="&#x2004;" horiz-adv-x="637" />
<glyph unicode="&#x2005;" horiz-adv-x="477" />
<glyph unicode="&#x2006;" horiz-adv-x="318" />
<glyph unicode="&#x2007;" horiz-adv-x="318" />
<glyph unicode="&#x2008;" horiz-adv-x="238" />
<glyph unicode="&#x2009;" horiz-adv-x="382" />
<glyph unicode="&#x200a;" horiz-adv-x="106" />
<glyph unicode="&#x2010;" horiz-adv-x="661" d="M51 408v274h559v-274h-559zM102 453h457v182h-457v-182z" />
<glyph unicode="&#x2011;" horiz-adv-x="661" d="M51 408v274h559v-274h-559zM102 453h457v182h-457v-182z" />
<glyph unicode="&#x2012;" horiz-adv-x="661" d="M51 408v274h559v-274h-559zM102 453h457v182h-457v-182z" />
<glyph unicode="&#x2013;" horiz-adv-x="1024" d="M0 434v45h1038v-45h-1038zM0 608v47h1038v-47h-1038z" />
<glyph unicode="&#x2014;" horiz-adv-x="2048" d="M0 434v45h2048v-45h-2048zM0 608v47h2048v-47h-2048z" />
<glyph unicode="&#x2018;" horiz-adv-x="555" d="M121 924v258q0 129 74.5 212t203.5 91v-144q-106 -31 -106 -141v-12h106v-264h-278zM170 967h182v178h-100q0 10 -1 18t-1 17q0 145 102 184v70q-86 -18 -134 -83t-48 -167v-217z" />
<glyph unicode="&#x2019;" horiz-adv-x="555" d="M127 909v144q106 31 106 143v12h-106v265h279v-261q0 -129 -75 -211.5t-204 -91.5zM174 961q86 18 134 83.5t48 167.5v215h-182v-178h100q0 -10 1 -18t1 -17q0 -145 -102 -184v-69z" />
<glyph unicode="&#x201a;" horiz-adv-x="555" d="M127 0v264h276v-258q0 -129 -73.5 -212t-202.5 -91v143q104 31 104 140v14h-104zM172 -178v-70q86 18 135 84t49 168v215h-182v-178h100q0 -10 1 -17.5t1 -15.5q0 -143 -104 -186z" />
<glyph unicode="&#x201c;" horiz-adv-x="1019" d="M121 924v258q0 129 74.5 212t203.5 91v-144q-106 -31 -106 -141v-12h106v-264h-278zM170 967h182v178h-100q0 10 -1 18t-1 17q0 145 102 184v70q-86 -18 -134 -83t-48 -167v-217zM586 924v258q0 129 74.5 212t203.5 91v-144q-106 -31 -106 -141v-12h106v-264h-278z M635 967h182v178h-100q0 10 -1 17t-1 16q0 76 25.5 119.5t76.5 66.5v70q-86 -18 -134 -83t-48 -167v-217z" />
<glyph unicode="&#x201d;" horiz-adv-x="1019" d="M127 909v144q106 31 106 143v12h-106v265h279v-261q0 -129 -75 -211.5t-204 -91.5zM174 961q86 18 134 83.5t48 167.5v215h-182v-178h100q0 -10 1 -18t1 -17q0 -145 -102 -184v-69zM592 909v144q106 31 106 143v12h-106v265h278v-261q0 -129 -74.5 -211.5t-203.5 -91.5z M639 961q86 18 134 83.5t48 167.5v215h-182v-178h100q0 -10 1 -17t1 -15q0 -76 -25.5 -120t-76.5 -67v-69z" />
<glyph unicode="&#x201e;" horiz-adv-x="1019" d="M127 0v264h276v-258q0 -129 -73.5 -212t-202.5 -91v143q104 31 104 140v14h-104zM172 -178v-70q86 18 135 84t49 168v215h-182v-178h100q0 -10 1 -17.5t1 -15.5q0 -143 -104 -186zM592 0v264h278v-258q0 -129 -74.5 -212t-203.5 -91v143q106 31 106 142v12h-106zM639 41 h100q0 -10 1 -18.5t1 -16.5q0 -145 -102 -184v-70q86 18 134 84t48 168v215h-182v-178z" />
<glyph unicode="&#x2022;" horiz-adv-x="1208" d="M307 762q0 61 23.5 114.5t63.5 93.5t94.5 63.5t115.5 23.5t114.5 -23.5t93.5 -63.5t63.5 -93.5t23.5 -114.5t-23.5 -114.5t-63.5 -94.5t-94 -64.5t-116 -23.5q-61 0 -115.5 23.5t-94.5 63.5t-62.5 94.5t-22.5 115.5z" />
<glyph unicode="&#x2026;" horiz-adv-x="2048" d="M188 0v301h304v-301h-304zM238 43h206v215h-206v-215zM870 0v301h304v-301h-304zM920 43h206v215h-206v-215zM1554 0v301h304v-301h-304zM1604 43h206v215h-206v-215z" />
<glyph unicode="&#x202f;" horiz-adv-x="382" />
<glyph unicode="&#x2039;" horiz-adv-x="663" d="M133 438v211l361 312v-271l-168 -145l168 -148v-270zM186 457l265 -232v150l-168 141v55l168 142v149l-265 -231v-174z" />
<glyph unicode="&#x203a;" horiz-adv-x="663" d="M170 127v270l170 148l-170 145v271l360 -312v-211zM213 225l264 232v174l-264 231v-149l168 -142v-55l-168 -141v-150z" />
<glyph unicode="&#x205f;" horiz-adv-x="477" />
<glyph unicode="&#x2122;" horiz-adv-x="1705" d="M285 1411v41h409v-41h-174v-485h-57v485h-178zM827 926v526h88l181 -455l168 455h86v-526h-47v489l-185 -489h-45l-196 489v-489h-50z" />
<glyph unicode="&#x25fc;" horiz-adv-x="1085" d="M0 0v1085h1085v-1085h-1085z" />
</font>
</defs>
</svg>
